<svg width="511" height="512" viewBox="0 0 511 512" fill="none" xmlns="http://www.w3.org/2000/svg">
<rect width="511" height="512" fill="white"/>
<path d="M248.65 221.051L260.266 225.745V229.382L245.088 222.35V219.641L260.266 212.627V216.264L248.65 221.051ZM270.341 208.062V212.924H274.089V215.577H270.341V228.027C270.341 228.831 270.508 229.438 270.842 229.846C271.176 230.242 271.745 230.439 272.549 230.439C272.945 230.439 273.489 230.365 274.182 230.217V233C273.279 233.247 272.4 233.371 271.547 233.371C270.013 233.371 268.856 232.907 268.077 231.979C267.298 231.052 266.908 229.734 266.908 228.027V215.577H263.253V212.924H266.908V208.062H270.341ZM287.819 216.004C287.3 215.917 286.737 215.874 286.131 215.874C283.88 215.874 282.352 216.833 281.548 218.75V233H278.115V212.924H281.455L281.511 215.243C282.636 213.45 284.232 212.553 286.298 212.553C286.966 212.553 287.473 212.639 287.819 212.812V216.004ZM303.146 220.939L290.881 216.134V212.608L306.727 219.622V222.331L290.881 229.363V225.801L303.146 220.939ZM232.605 244.96C232.605 243.93 232.742 242.941 233.016 241.993C233.294 241.045 233.706 240.184 234.253 239.409C234.8 238.634 235.367 238.088 235.955 237.769L236.215 238.603C235.549 239.113 235.003 239.892 234.574 240.94C234.15 241.989 233.918 243.162 233.877 244.461L233.87 245.042C233.87 246.801 234.191 248.328 234.834 249.622C235.221 250.397 235.682 251.003 236.215 251.44L235.955 252.213C235.349 251.876 234.77 251.311 234.219 250.518C233.143 248.968 232.605 247.116 232.605 244.96ZM241.745 247.038C241.745 246.696 241.615 246.432 241.355 246.245C241.1 246.054 240.651 245.89 240.009 245.753C239.371 245.616 238.863 245.452 238.484 245.261C238.111 245.069 237.833 244.841 237.65 244.577C237.473 244.313 237.384 243.998 237.384 243.634C237.384 243.028 237.639 242.515 238.149 242.096C238.664 241.676 239.321 241.467 240.118 241.467C240.957 241.467 241.636 241.683 242.155 242.116C242.679 242.549 242.941 243.103 242.941 243.777H241.67C241.67 243.431 241.522 243.132 241.226 242.882C240.934 242.631 240.565 242.506 240.118 242.506C239.658 242.506 239.298 242.606 239.038 242.807C238.778 243.007 238.648 243.269 238.648 243.593C238.648 243.898 238.769 244.128 239.011 244.283C239.252 244.438 239.688 244.586 240.316 244.728C240.95 244.869 241.463 245.037 241.854 245.233C242.246 245.429 242.536 245.666 242.723 245.944C242.914 246.218 243.01 246.553 243.01 246.949C243.01 247.61 242.745 248.141 242.217 248.542C241.688 248.938 241.002 249.137 240.159 249.137C239.567 249.137 239.043 249.032 238.587 248.822C238.131 248.613 237.773 248.321 237.514 247.947C237.258 247.569 237.131 247.161 237.131 246.724H238.396C238.418 247.147 238.587 247.485 238.901 247.735C239.22 247.981 239.64 248.104 240.159 248.104C240.638 248.104 241.021 248.009 241.308 247.817C241.599 247.621 241.745 247.362 241.745 247.038ZM246.031 249H244.767V241.604H246.031V249ZM244.664 239.642C244.664 239.437 244.726 239.263 244.849 239.122C244.976 238.981 245.163 238.91 245.409 238.91C245.655 238.91 245.842 238.981 245.97 239.122C246.097 239.263 246.161 239.437 246.161 239.642C246.161 239.847 246.097 240.018 245.97 240.154C245.842 240.291 245.655 240.359 245.409 240.359C245.163 240.359 244.976 240.291 244.849 240.154C244.726 240.018 244.664 239.847 244.664 239.642ZM249.258 241.604L249.299 242.533C249.864 241.822 250.602 241.467 251.514 241.467C253.077 241.467 253.865 242.349 253.879 244.112V249H252.614V244.105C252.61 243.572 252.487 243.178 252.245 242.923C252.008 242.668 251.637 242.54 251.131 242.54C250.721 242.54 250.361 242.649 250.051 242.868C249.741 243.087 249.499 243.374 249.326 243.729V249H248.062V241.604H249.258ZM255.485 245.24C255.485 244.087 255.752 243.171 256.285 242.492C256.818 241.809 257.525 241.467 258.404 241.467C259.307 241.467 260.011 241.786 260.517 242.424L260.578 241.604H261.733V248.822C261.733 249.779 261.449 250.534 260.879 251.085C260.314 251.636 259.553 251.912 258.596 251.912C258.062 251.912 257.541 251.798 257.03 251.57C256.52 251.342 256.13 251.03 255.861 250.634L256.518 249.875C257.06 250.545 257.723 250.88 258.507 250.88C259.122 250.88 259.601 250.707 259.942 250.36C260.289 250.014 260.462 249.526 260.462 248.897V248.262C259.956 248.845 259.266 249.137 258.391 249.137C257.525 249.137 256.823 248.788 256.285 248.091C255.752 247.394 255.485 246.443 255.485 245.24ZM256.757 245.384C256.757 246.218 256.928 246.874 257.27 247.353C257.611 247.826 258.09 248.063 258.705 248.063C259.503 248.063 260.088 247.701 260.462 246.977V243.6C260.075 242.893 259.493 242.54 258.719 242.54C258.104 242.54 257.623 242.779 257.276 243.258C256.93 243.736 256.757 244.445 256.757 245.384ZM265.021 249H263.757V238.5H265.021V249ZM270.121 249.137C269.118 249.137 268.303 248.809 267.674 248.152C267.045 247.492 266.73 246.61 266.73 245.507V245.274C266.73 244.541 266.869 243.887 267.147 243.312C267.43 242.734 267.822 242.283 268.323 241.959C268.829 241.631 269.376 241.467 269.964 241.467C270.925 241.467 271.673 241.784 272.206 242.417C272.739 243.05 273.006 243.957 273.006 245.138V245.664H267.995C268.013 246.393 268.225 246.983 268.631 247.435C269.041 247.881 269.561 248.104 270.189 248.104C270.636 248.104 271.014 248.013 271.324 247.831C271.634 247.649 271.905 247.407 272.138 247.106L272.91 247.708C272.29 248.66 271.361 249.137 270.121 249.137ZM269.964 242.506C269.453 242.506 269.025 242.693 268.679 243.066C268.332 243.436 268.118 243.955 268.036 244.625H271.741V244.529C271.705 243.887 271.532 243.39 271.222 243.039C270.912 242.684 270.493 242.506 269.964 242.506ZM279.145 241.604L279.186 242.533C279.751 241.822 280.489 241.467 281.4 241.467C282.964 241.467 283.752 242.349 283.766 244.112V249H282.501V244.105C282.496 243.572 282.373 243.178 282.132 242.923C281.895 242.668 281.523 242.54 281.018 242.54C280.607 242.54 280.247 242.649 279.938 242.868C279.628 243.087 279.386 243.374 279.213 243.729V249H277.948V241.604H279.145ZM285.338 245.233C285.338 244.509 285.479 243.857 285.762 243.278C286.049 242.7 286.445 242.253 286.951 241.938C287.462 241.624 288.043 241.467 288.694 241.467C289.701 241.467 290.515 241.815 291.135 242.513C291.759 243.21 292.071 244.137 292.071 245.295V245.384C292.071 246.104 291.932 246.751 291.654 247.325C291.381 247.895 290.987 248.339 290.472 248.658C289.961 248.977 289.373 249.137 288.708 249.137C287.705 249.137 286.892 248.788 286.268 248.091C285.648 247.394 285.338 246.471 285.338 245.322V245.233ZM286.609 245.384C286.609 246.204 286.799 246.863 287.177 247.359C287.56 247.856 288.07 248.104 288.708 248.104C289.351 248.104 289.861 247.854 290.239 247.353C290.618 246.847 290.807 246.14 290.807 245.233C290.807 244.422 290.613 243.766 290.226 243.265C289.843 242.759 289.332 242.506 288.694 242.506C288.07 242.506 287.566 242.754 287.184 243.251C286.801 243.748 286.609 244.459 286.609 245.384ZM295.373 239.812V241.604H296.754V242.581H295.373V247.168C295.373 247.464 295.435 247.688 295.558 247.838C295.681 247.984 295.89 248.057 296.187 248.057C296.332 248.057 296.533 248.029 296.788 247.975V249C296.455 249.091 296.132 249.137 295.817 249.137C295.252 249.137 294.826 248.966 294.539 248.624C294.252 248.282 294.108 247.797 294.108 247.168V242.581H292.762V241.604H294.108V239.812H295.373ZM299.611 249H298.347V241.604H299.611V249ZM298.244 239.642C298.244 239.437 298.306 239.263 298.429 239.122C298.556 238.981 298.743 238.91 298.989 238.91C299.235 238.91 299.422 238.981 299.55 239.122C299.677 239.263 299.741 239.437 299.741 239.642C299.741 239.847 299.677 240.018 299.55 240.154C299.422 240.291 299.235 240.359 298.989 240.359C298.743 240.359 298.556 240.291 298.429 240.154C298.306 240.018 298.244 239.847 298.244 239.642ZM304.608 248.104C305.06 248.104 305.454 247.968 305.791 247.694C306.128 247.421 306.315 247.079 306.352 246.669H307.548C307.525 247.093 307.379 247.496 307.11 247.879C306.841 248.262 306.481 248.567 306.03 248.795C305.584 249.023 305.11 249.137 304.608 249.137C303.601 249.137 302.799 248.802 302.202 248.132C301.61 247.457 301.313 246.537 301.313 245.37V245.158C301.313 244.438 301.446 243.798 301.71 243.237C301.974 242.677 302.353 242.242 302.845 241.932C303.341 241.622 303.927 241.467 304.602 241.467C305.431 241.467 306.119 241.715 306.666 242.212C307.217 242.709 307.511 243.354 307.548 244.146H306.352C306.315 243.668 306.133 243.276 305.805 242.971C305.481 242.661 305.08 242.506 304.602 242.506C303.959 242.506 303.46 242.738 303.104 243.203C302.754 243.663 302.578 244.331 302.578 245.206V245.445C302.578 246.298 302.754 246.954 303.104 247.414C303.455 247.874 303.957 248.104 304.608 248.104ZM312.039 249.137C311.036 249.137 310.221 248.809 309.592 248.152C308.963 247.492 308.648 246.61 308.648 245.507V245.274C308.648 244.541 308.787 243.887 309.065 243.312C309.348 242.734 309.74 242.283 310.241 241.959C310.747 241.631 311.294 241.467 311.882 241.467C312.843 241.467 313.591 241.784 314.124 242.417C314.657 243.05 314.924 243.957 314.924 245.138V245.664H309.913C309.931 246.393 310.143 246.983 310.549 247.435C310.959 247.881 311.479 248.104 312.107 248.104C312.554 248.104 312.932 248.013 313.242 247.831C313.552 247.649 313.823 247.407 314.056 247.106L314.828 247.708C314.208 248.66 313.279 249.137 312.039 249.137ZM311.882 242.506C311.371 242.506 310.943 242.693 310.597 243.066C310.25 243.436 310.036 243.955 309.954 244.625H313.659V244.529C313.623 243.887 313.45 243.39 313.14 243.039C312.83 242.684 312.41 242.506 311.882 242.506ZM319.312 245.028C319.312 246.045 319.178 247.02 318.909 247.954C318.645 248.884 318.237 249.743 317.686 250.531C317.139 251.32 316.564 251.88 315.963 252.213L315.696 251.44C316.398 250.903 316.961 250.069 317.385 248.938C317.813 247.804 318.032 246.546 318.041 245.165V244.946C318.041 243.989 317.941 243.101 317.74 242.28C317.54 241.455 317.259 240.717 316.899 240.065C316.544 239.414 316.143 238.906 315.696 238.541L315.963 237.769C316.564 238.101 317.136 238.657 317.679 239.437C318.226 240.216 318.633 241.075 318.902 242.014C319.176 242.952 319.312 243.957 319.312 245.028Z" fill="black"/>
<path d="M403.65 198.051L415.266 202.745V206.382L400.088 199.35V196.641L415.266 189.627V193.264L403.65 198.051ZM425.341 185.062V189.924H429.089V192.577H425.341V205.027C425.341 205.831 425.508 206.438 425.842 206.846C426.176 207.242 426.745 207.439 427.549 207.439C427.945 207.439 428.489 207.365 429.182 207.217V210C428.279 210.247 427.4 210.371 426.547 210.371C425.013 210.371 423.856 209.907 423.077 208.979C422.298 208.052 421.908 206.734 421.908 205.027V192.577H418.253V189.924H421.908V185.062H425.341ZM442.819 193.004C442.3 192.917 441.737 192.874 441.131 192.874C438.88 192.874 437.352 193.833 436.548 195.75V210H433.115V189.924H436.455L436.511 192.243C437.636 190.45 439.232 189.553 441.298 189.553C441.966 189.553 442.473 189.639 442.819 189.812V193.004ZM458.146 197.939L445.881 193.134V189.608L461.727 196.622V199.331L445.881 206.363V202.801L458.146 197.939ZM387.605 221.96C387.605 220.93 387.742 219.941 388.016 218.993C388.294 218.045 388.706 217.184 389.253 216.409C389.8 215.634 390.367 215.088 390.955 214.769L391.215 215.603C390.549 216.113 390.003 216.892 389.574 217.94C389.15 218.989 388.918 220.162 388.877 221.461L388.87 222.042C388.87 223.801 389.191 225.328 389.834 226.622C390.221 227.397 390.682 228.003 391.215 228.44L390.955 229.213C390.349 228.876 389.77 228.311 389.219 227.518C388.143 225.968 387.605 224.116 387.605 221.96ZM396.745 224.038C396.745 223.696 396.615 223.432 396.355 223.245C396.1 223.054 395.651 222.89 395.009 222.753C394.371 222.616 393.863 222.452 393.484 222.261C393.111 222.069 392.833 221.841 392.65 221.577C392.473 221.313 392.384 220.998 392.384 220.634C392.384 220.028 392.639 219.515 393.149 219.096C393.664 218.676 394.321 218.467 395.118 218.467C395.957 218.467 396.636 218.683 397.155 219.116C397.679 219.549 397.941 220.103 397.941 220.777H396.67C396.67 220.431 396.522 220.132 396.226 219.882C395.934 219.631 395.565 219.506 395.118 219.506C394.658 219.506 394.298 219.606 394.038 219.807C393.778 220.007 393.648 220.269 393.648 220.593C393.648 220.898 393.769 221.128 394.011 221.283C394.252 221.438 394.688 221.586 395.316 221.728C395.95 221.869 396.463 222.037 396.854 222.233C397.246 222.429 397.536 222.666 397.723 222.944C397.914 223.218 398.01 223.553 398.01 223.949C398.01 224.61 397.745 225.141 397.217 225.542C396.688 225.938 396.002 226.137 395.159 226.137C394.567 226.137 394.043 226.032 393.587 225.822C393.131 225.613 392.773 225.321 392.514 224.947C392.258 224.569 392.131 224.161 392.131 223.724H393.396C393.418 224.147 393.587 224.485 393.901 224.735C394.22 224.981 394.64 225.104 395.159 225.104C395.638 225.104 396.021 225.009 396.308 224.817C396.599 224.621 396.745 224.362 396.745 224.038ZM401.031 226H399.767V218.604H401.031V226ZM399.664 216.642C399.664 216.437 399.726 216.263 399.849 216.122C399.976 215.981 400.163 215.91 400.409 215.91C400.655 215.91 400.842 215.981 400.97 216.122C401.097 216.263 401.161 216.437 401.161 216.642C401.161 216.847 401.097 217.018 400.97 217.154C400.842 217.291 400.655 217.359 400.409 217.359C400.163 217.359 399.976 217.291 399.849 217.154C399.726 217.018 399.664 216.847 399.664 216.642ZM404.258 218.604L404.299 219.533C404.864 218.822 405.602 218.467 406.514 218.467C408.077 218.467 408.865 219.349 408.879 221.112V226H407.614V221.105C407.61 220.572 407.487 220.178 407.245 219.923C407.008 219.668 406.637 219.54 406.131 219.54C405.721 219.54 405.361 219.649 405.051 219.868C404.741 220.087 404.499 220.374 404.326 220.729V226H403.062V218.604H404.258ZM410.485 222.24C410.485 221.087 410.752 220.171 411.285 219.492C411.818 218.809 412.525 218.467 413.404 218.467C414.307 218.467 415.011 218.786 415.517 219.424L415.578 218.604H416.733V225.822C416.733 226.779 416.449 227.534 415.879 228.085C415.314 228.636 414.553 228.912 413.596 228.912C413.062 228.912 412.541 228.798 412.03 228.57C411.52 228.342 411.13 228.03 410.861 227.634L411.518 226.875C412.06 227.545 412.723 227.88 413.507 227.88C414.122 227.88 414.601 227.707 414.942 227.36C415.289 227.014 415.462 226.526 415.462 225.897V225.262C414.956 225.845 414.266 226.137 413.391 226.137C412.525 226.137 411.823 225.788 411.285 225.091C410.752 224.394 410.485 223.443 410.485 222.24ZM411.757 222.384C411.757 223.218 411.928 223.874 412.27 224.353C412.611 224.826 413.09 225.063 413.705 225.063C414.503 225.063 415.088 224.701 415.462 223.977V220.6C415.075 219.893 414.493 219.54 413.719 219.54C413.104 219.54 412.623 219.779 412.276 220.258C411.93 220.736 411.757 221.445 411.757 222.384ZM420.021 226H418.757V215.5H420.021V226ZM425.121 226.137C424.118 226.137 423.303 225.809 422.674 225.152C422.045 224.492 421.73 223.61 421.73 222.507V222.274C421.73 221.541 421.869 220.887 422.147 220.312C422.43 219.734 422.822 219.283 423.323 218.959C423.829 218.631 424.376 218.467 424.964 218.467C425.925 218.467 426.673 218.784 427.206 219.417C427.739 220.05 428.006 220.957 428.006 222.138V222.664H422.995C423.013 223.393 423.225 223.983 423.631 224.435C424.041 224.881 424.561 225.104 425.189 225.104C425.636 225.104 426.014 225.013 426.324 224.831C426.634 224.649 426.905 224.407 427.138 224.106L427.91 224.708C427.29 225.66 426.361 226.137 425.121 226.137ZM424.964 219.506C424.453 219.506 424.025 219.693 423.679 220.066C423.332 220.436 423.118 220.955 423.036 221.625H426.741V221.529C426.705 220.887 426.532 220.39 426.222 220.039C425.912 219.684 425.493 219.506 424.964 219.506ZM434.145 218.604L434.186 219.533C434.751 218.822 435.489 218.467 436.4 218.467C437.964 218.467 438.752 219.349 438.766 221.112V226H437.501V221.105C437.496 220.572 437.373 220.178 437.132 219.923C436.895 219.668 436.523 219.54 436.018 219.54C435.607 219.54 435.247 219.649 434.938 219.868C434.628 220.087 434.386 220.374 434.213 220.729V226H432.948V218.604H434.145ZM440.338 222.233C440.338 221.509 440.479 220.857 440.762 220.278C441.049 219.7 441.445 219.253 441.951 218.938C442.462 218.624 443.043 218.467 443.694 218.467C444.701 218.467 445.515 218.815 446.135 219.513C446.759 220.21 447.071 221.137 447.071 222.295V222.384C447.071 223.104 446.932 223.751 446.654 224.325C446.381 224.895 445.987 225.339 445.472 225.658C444.961 225.977 444.373 226.137 443.708 226.137C442.705 226.137 441.892 225.788 441.268 225.091C440.648 224.394 440.338 223.471 440.338 222.322V222.233ZM441.609 222.384C441.609 223.204 441.799 223.863 442.177 224.359C442.56 224.856 443.07 225.104 443.708 225.104C444.351 225.104 444.861 224.854 445.239 224.353C445.618 223.847 445.807 223.14 445.807 222.233C445.807 221.422 445.613 220.766 445.226 220.265C444.843 219.759 444.332 219.506 443.694 219.506C443.07 219.506 442.566 219.754 442.184 220.251C441.801 220.748 441.609 221.459 441.609 222.384ZM450.373 216.812V218.604H451.754V219.581H450.373V224.168C450.373 224.464 450.435 224.688 450.558 224.838C450.681 224.984 450.89 225.057 451.187 225.057C451.332 225.057 451.533 225.029 451.788 224.975V226C451.455 226.091 451.132 226.137 450.817 226.137C450.252 226.137 449.826 225.966 449.539 225.624C449.252 225.282 449.108 224.797 449.108 224.168V219.581H447.762V218.604H449.108V216.812H450.373ZM454.611 226H453.347V218.604H454.611V226ZM453.244 216.642C453.244 216.437 453.306 216.263 453.429 216.122C453.556 215.981 453.743 215.91 453.989 215.91C454.235 215.91 454.422 215.981 454.55 216.122C454.677 216.263 454.741 216.437 454.741 216.642C454.741 216.847 454.677 217.018 454.55 217.154C454.422 217.291 454.235 217.359 453.989 217.359C453.743 217.359 453.556 217.291 453.429 217.154C453.306 217.018 453.244 216.847 453.244 216.642ZM459.608 225.104C460.06 225.104 460.454 224.968 460.791 224.694C461.128 224.421 461.315 224.079 461.352 223.669H462.548C462.525 224.093 462.379 224.496 462.11 224.879C461.841 225.262 461.481 225.567 461.03 225.795C460.584 226.023 460.11 226.137 459.608 226.137C458.601 226.137 457.799 225.802 457.202 225.132C456.61 224.457 456.313 223.537 456.313 222.37V222.158C456.313 221.438 456.446 220.798 456.71 220.237C456.974 219.677 457.353 219.242 457.845 218.932C458.341 218.622 458.927 218.467 459.602 218.467C460.431 218.467 461.119 218.715 461.666 219.212C462.217 219.709 462.511 220.354 462.548 221.146H461.352C461.315 220.668 461.133 220.276 460.805 219.971C460.481 219.661 460.08 219.506 459.602 219.506C458.959 219.506 458.46 219.738 458.104 220.203C457.754 220.663 457.578 221.331 457.578 222.206V222.445C457.578 223.298 457.754 223.954 458.104 224.414C458.455 224.874 458.957 225.104 459.608 225.104ZM467.039 226.137C466.036 226.137 465.221 225.809 464.592 225.152C463.963 224.492 463.648 223.61 463.648 222.507V222.274C463.648 221.541 463.787 220.887 464.065 220.312C464.348 219.734 464.74 219.283 465.241 218.959C465.747 218.631 466.294 218.467 466.882 218.467C467.843 218.467 468.591 218.784 469.124 219.417C469.657 220.05 469.924 220.957 469.924 222.138V222.664H464.913C464.931 223.393 465.143 223.983 465.549 224.435C465.959 224.881 466.479 225.104 467.107 225.104C467.554 225.104 467.932 225.013 468.242 224.831C468.552 224.649 468.823 224.407 469.056 224.106L469.828 224.708C469.208 225.66 468.279 226.137 467.039 226.137ZM466.882 219.506C466.371 219.506 465.943 219.693 465.597 220.066C465.25 220.436 465.036 220.955 464.954 221.625H468.659V221.529C468.623 220.887 468.45 220.39 468.14 220.039C467.83 219.684 467.41 219.506 466.882 219.506ZM474.312 222.028C474.312 223.045 474.178 224.02 473.909 224.954C473.645 225.884 473.237 226.743 472.686 227.531C472.139 228.32 471.564 228.88 470.963 229.213L470.696 228.44C471.398 227.903 471.961 227.069 472.385 225.938C472.813 224.804 473.032 223.546 473.041 222.165V221.946C473.041 220.989 472.941 220.101 472.74 219.28C472.54 218.455 472.259 217.717 471.899 217.065C471.544 216.414 471.143 215.906 470.696 215.541L470.963 214.769C471.564 215.101 472.136 215.657 472.679 216.437C473.226 217.216 473.633 218.075 473.902 219.014C474.176 219.952 474.312 220.957 474.312 222.028Z" fill="black"/>
<path d="M89.6504 196.051L101.266 200.745V204.382L86.0879 197.35V194.641L101.266 187.627V191.264L89.6504 196.051ZM111.341 183.062V187.924H115.089V190.577H111.341V203.027C111.341 203.831 111.508 204.438 111.842 204.846C112.176 205.242 112.745 205.439 113.549 205.439C113.945 205.439 114.489 205.365 115.182 205.217V208C114.279 208.247 113.4 208.371 112.547 208.371C111.013 208.371 109.856 207.907 109.077 206.979C108.298 206.052 107.908 204.734 107.908 203.027V190.577H104.253V187.924H107.908V183.062H111.341ZM128.819 191.004C128.3 190.917 127.737 190.874 127.131 190.874C124.88 190.874 123.352 191.833 122.548 193.75V208H119.115V187.924H122.455L122.511 190.243C123.636 188.45 125.232 187.553 127.298 187.553C127.966 187.553 128.473 187.639 128.819 187.812V191.004ZM144.146 195.939L131.881 191.134V187.608L147.727 194.622V197.331L131.881 204.363V200.801L144.146 195.939ZM73.6055 219.96C73.6055 218.93 73.7422 217.941 74.0156 216.993C74.2936 216.045 74.7061 215.184 75.2529 214.409C75.7998 213.634 76.3672 213.088 76.9551 212.769L77.2148 213.603C76.5495 214.113 76.0026 214.892 75.5742 215.94C75.1504 216.989 74.918 218.162 74.877 219.461L74.8701 220.042C74.8701 221.801 75.1914 223.328 75.834 224.622C76.2214 225.397 76.6816 226.003 77.2148 226.44L76.9551 227.213C76.349 226.876 75.7702 226.311 75.2188 225.518C74.1432 223.968 73.6055 222.116 73.6055 219.96ZM82.7451 222.038C82.7451 221.696 82.6152 221.432 82.3555 221.245C82.1003 221.054 81.6514 220.89 81.0088 220.753C80.3708 220.616 79.8626 220.452 79.4844 220.261C79.1107 220.069 78.8327 219.841 78.6504 219.577C78.4727 219.313 78.3838 218.998 78.3838 218.634C78.3838 218.028 78.639 217.515 79.1494 217.096C79.6644 216.676 80.3206 216.467 81.1182 216.467C81.9567 216.467 82.6357 216.683 83.1553 217.116C83.6794 217.549 83.9414 218.103 83.9414 218.777H82.6699C82.6699 218.431 82.5218 218.132 82.2256 217.882C81.9339 217.631 81.5648 217.506 81.1182 217.506C80.6579 217.506 80.2979 217.606 80.0381 217.807C79.7783 218.007 79.6484 218.269 79.6484 218.593C79.6484 218.898 79.7692 219.128 80.0107 219.283C80.2523 219.438 80.6875 219.586 81.3164 219.728C81.9499 219.869 82.4626 220.037 82.8545 220.233C83.2464 220.429 83.5358 220.666 83.7227 220.944C83.9141 221.218 84.0098 221.553 84.0098 221.949C84.0098 222.61 83.7454 223.141 83.2168 223.542C82.6882 223.938 82.0023 224.137 81.1592 224.137C80.5667 224.137 80.0426 224.032 79.5869 223.822C79.1312 223.613 78.7734 223.321 78.5137 222.947C78.2585 222.569 78.1309 222.161 78.1309 221.724H79.3955C79.4183 222.147 79.5869 222.485 79.9014 222.735C80.2204 222.981 80.6396 223.104 81.1592 223.104C81.6377 223.104 82.0205 223.009 82.3076 222.817C82.5993 222.621 82.7451 222.362 82.7451 222.038ZM87.0312 224H85.7666V216.604H87.0312V224ZM85.6641 214.642C85.6641 214.437 85.7256 214.263 85.8486 214.122C85.9762 213.981 86.1631 213.91 86.4092 213.91C86.6553 213.91 86.8421 213.981 86.9697 214.122C87.0973 214.263 87.1611 214.437 87.1611 214.642C87.1611 214.847 87.0973 215.018 86.9697 215.154C86.8421 215.291 86.6553 215.359 86.4092 215.359C86.1631 215.359 85.9762 215.291 85.8486 215.154C85.7256 215.018 85.6641 214.847 85.6641 214.642ZM90.2578 216.604L90.2988 217.533C90.8639 216.822 91.6022 216.467 92.5137 216.467C94.0768 216.467 94.8652 217.349 94.8789 219.112V224H93.6143V219.105C93.6097 218.572 93.4867 218.178 93.2451 217.923C93.0081 217.668 92.6367 217.54 92.1309 217.54C91.7207 217.54 91.3607 217.649 91.0508 217.868C90.7409 218.087 90.4993 218.374 90.3262 218.729V224H89.0615V216.604H90.2578ZM96.4854 220.24C96.4854 219.087 96.752 218.171 97.2852 217.492C97.8184 216.809 98.5247 216.467 99.4043 216.467C100.307 216.467 101.011 216.786 101.517 217.424L101.578 216.604H102.733V223.822C102.733 224.779 102.449 225.534 101.879 226.085C101.314 226.636 100.553 226.912 99.5957 226.912C99.0625 226.912 98.5407 226.798 98.0303 226.57C97.5199 226.342 97.1302 226.03 96.8613 225.634L97.5176 224.875C98.0599 225.545 98.723 225.88 99.5068 225.88C100.122 225.88 100.601 225.707 100.942 225.36C101.289 225.014 101.462 224.526 101.462 223.897V223.262C100.956 223.845 100.266 224.137 99.3906 224.137C98.5247 224.137 97.8229 223.788 97.2852 223.091C96.752 222.394 96.4854 221.443 96.4854 220.24ZM97.7568 220.384C97.7568 221.218 97.9277 221.874 98.2695 222.353C98.6113 222.826 99.0898 223.063 99.7051 223.063C100.503 223.063 101.088 222.701 101.462 221.977V218.6C101.075 217.893 100.493 217.54 99.7188 217.54C99.1035 217.54 98.6227 217.779 98.2764 218.258C97.93 218.736 97.7568 219.445 97.7568 220.384ZM106.021 224H104.757V213.5H106.021V224ZM111.121 224.137C110.118 224.137 109.303 223.809 108.674 223.152C108.045 222.492 107.73 221.61 107.73 220.507V220.274C107.73 219.541 107.869 218.887 108.147 218.312C108.43 217.734 108.822 217.283 109.323 216.959C109.829 216.631 110.376 216.467 110.964 216.467C111.925 216.467 112.673 216.784 113.206 217.417C113.739 218.05 114.006 218.957 114.006 220.138V220.664H108.995C109.013 221.393 109.225 221.983 109.631 222.435C110.041 222.881 110.561 223.104 111.189 223.104C111.636 223.104 112.014 223.013 112.324 222.831C112.634 222.649 112.905 222.407 113.138 222.106L113.91 222.708C113.29 223.66 112.361 224.137 111.121 224.137ZM110.964 217.506C110.453 217.506 110.025 217.693 109.679 218.066C109.332 218.436 109.118 218.955 109.036 219.625H112.741V219.529C112.705 218.887 112.532 218.39 112.222 218.039C111.912 217.684 111.493 217.506 110.964 217.506ZM120.145 216.604L120.186 217.533C120.751 216.822 121.489 216.467 122.4 216.467C123.964 216.467 124.752 217.349 124.766 219.112V224H123.501V219.105C123.496 218.572 123.373 218.178 123.132 217.923C122.895 217.668 122.523 217.54 122.018 217.54C121.607 217.54 121.247 217.649 120.938 217.868C120.628 218.087 120.386 218.374 120.213 218.729V224H118.948V216.604H120.145ZM126.338 220.233C126.338 219.509 126.479 218.857 126.762 218.278C127.049 217.7 127.445 217.253 127.951 216.938C128.462 216.624 129.043 216.467 129.694 216.467C130.701 216.467 131.515 216.815 132.135 217.513C132.759 218.21 133.071 219.137 133.071 220.295V220.384C133.071 221.104 132.932 221.751 132.654 222.325C132.381 222.895 131.987 223.339 131.472 223.658C130.961 223.977 130.373 224.137 129.708 224.137C128.705 224.137 127.892 223.788 127.268 223.091C126.648 222.394 126.338 221.471 126.338 220.322V220.233ZM127.609 220.384C127.609 221.204 127.799 221.863 128.177 222.359C128.56 222.856 129.07 223.104 129.708 223.104C130.351 223.104 130.861 222.854 131.239 222.353C131.618 221.847 131.807 221.14 131.807 220.233C131.807 219.422 131.613 218.766 131.226 218.265C130.843 217.759 130.332 217.506 129.694 217.506C129.07 217.506 128.566 217.754 128.184 218.251C127.801 218.748 127.609 219.459 127.609 220.384ZM136.373 214.812V216.604H137.754V217.581H136.373V222.168C136.373 222.464 136.435 222.688 136.558 222.838C136.681 222.984 136.89 223.057 137.187 223.057C137.332 223.057 137.533 223.029 137.788 222.975V224C137.455 224.091 137.132 224.137 136.817 224.137C136.252 224.137 135.826 223.966 135.539 223.624C135.252 223.282 135.108 222.797 135.108 222.168V217.581H133.762V216.604H135.108V214.812H136.373ZM140.611 224H139.347V216.604H140.611V224ZM139.244 214.642C139.244 214.437 139.306 214.263 139.429 214.122C139.556 213.981 139.743 213.91 139.989 213.91C140.235 213.91 140.422 213.981 140.55 214.122C140.677 214.263 140.741 214.437 140.741 214.642C140.741 214.847 140.677 215.018 140.55 215.154C140.422 215.291 140.235 215.359 139.989 215.359C139.743 215.359 139.556 215.291 139.429 215.154C139.306 215.018 139.244 214.847 139.244 214.642ZM145.608 223.104C146.06 223.104 146.454 222.968 146.791 222.694C147.128 222.421 147.315 222.079 147.352 221.669H148.548C148.525 222.093 148.379 222.496 148.11 222.879C147.841 223.262 147.481 223.567 147.03 223.795C146.584 224.023 146.11 224.137 145.608 224.137C144.601 224.137 143.799 223.802 143.202 223.132C142.61 222.457 142.313 221.537 142.313 220.37V220.158C142.313 219.438 142.446 218.798 142.71 218.237C142.974 217.677 143.353 217.242 143.845 216.932C144.341 216.622 144.927 216.467 145.602 216.467C146.431 216.467 147.119 216.715 147.666 217.212C148.217 217.709 148.511 218.354 148.548 219.146H147.352C147.315 218.668 147.133 218.276 146.805 217.971C146.481 217.661 146.08 217.506 145.602 217.506C144.959 217.506 144.46 217.738 144.104 218.203C143.754 218.663 143.578 219.331 143.578 220.206V220.445C143.578 221.298 143.754 221.954 144.104 222.414C144.455 222.874 144.957 223.104 145.608 223.104ZM153.039 224.137C152.036 224.137 151.221 223.809 150.592 223.152C149.963 222.492 149.648 221.61 149.648 220.507V220.274C149.648 219.541 149.787 218.887 150.065 218.312C150.348 217.734 150.74 217.283 151.241 216.959C151.747 216.631 152.294 216.467 152.882 216.467C153.843 216.467 154.591 216.784 155.124 217.417C155.657 218.05 155.924 218.957 155.924 220.138V220.664H150.913C150.931 221.393 151.143 221.983 151.549 222.435C151.959 222.881 152.479 223.104 153.107 223.104C153.554 223.104 153.932 223.013 154.242 222.831C154.552 222.649 154.823 222.407 155.056 222.106L155.828 222.708C155.208 223.66 154.279 224.137 153.039 224.137ZM152.882 217.506C152.371 217.506 151.943 217.693 151.597 218.066C151.25 218.436 151.036 218.955 150.954 219.625H154.659V219.529C154.623 218.887 154.45 218.39 154.14 218.039C153.83 217.684 153.41 217.506 152.882 217.506ZM160.312 220.028C160.312 221.045 160.178 222.02 159.909 222.954C159.645 223.884 159.237 224.743 158.686 225.531C158.139 226.32 157.564 226.88 156.963 227.213L156.696 226.44C157.398 225.903 157.961 225.069 158.385 223.938C158.813 222.804 159.032 221.546 159.041 220.165V219.946C159.041 218.989 158.941 218.101 158.74 217.28C158.54 216.455 158.259 215.717 157.899 215.065C157.544 214.414 157.143 213.906 156.696 213.541L156.963 212.769C157.564 213.101 158.136 213.657 158.679 214.437C159.226 215.216 159.633 216.075 159.902 217.014C160.176 217.952 160.312 218.957 160.312 220.028Z" fill="black"/>
<path d="M161.48 310.51L169.733 313.845V316.429L158.949 311.433V309.508L169.733 304.524V307.108L161.48 310.51ZM176.892 301.281V304.735H179.555V306.621H176.892V315.467C176.892 316.038 177.011 316.469 177.248 316.759C177.485 317.04 177.89 317.181 178.461 317.181C178.742 317.181 179.129 317.128 179.621 317.022V319C178.979 319.176 178.355 319.264 177.749 319.264C176.659 319.264 175.837 318.934 175.284 318.275C174.73 317.616 174.453 316.68 174.453 315.467V306.621H171.856V304.735H174.453V301.281H176.892ZM181.823 311.749C181.823 309.561 182.341 307.803 183.378 306.476C184.416 305.14 185.773 304.472 187.452 304.472C189.122 304.472 190.445 305.043 191.42 306.186V298.75H193.859V319H191.618L191.5 317.471C190.524 318.666 189.166 319.264 187.426 319.264C185.773 319.264 184.424 318.587 183.378 317.233C182.341 315.88 181.823 314.113 181.823 311.934V311.749ZM184.262 312.026C184.262 313.643 184.596 314.909 185.264 315.823C185.932 316.737 186.854 317.194 188.032 317.194C189.579 317.194 190.708 316.5 191.42 315.111V308.559C190.691 307.214 189.57 306.542 188.059 306.542C186.863 306.542 185.932 307.003 185.264 307.926C184.596 308.849 184.262 310.215 184.262 312.026ZM206.292 310.431L197.577 307.016V304.511L208.836 309.495V311.419L197.577 316.416V313.885L206.292 310.431Z" fill="black"/>
<path d="M374.48 310.51L382.733 313.845V316.429L371.949 311.433V309.508L382.733 304.524V307.108L374.48 310.51ZM389.892 301.281V304.735H392.555V306.621H389.892V315.467C389.892 316.038 390.011 316.469 390.248 316.759C390.485 317.04 390.89 317.181 391.461 317.181C391.742 317.181 392.129 317.128 392.621 317.022V319C391.979 319.176 391.355 319.264 390.749 319.264C389.659 319.264 388.837 318.934 388.284 318.275C387.73 317.616 387.453 316.68 387.453 315.467V306.621H384.856V304.735H387.453V301.281H389.892ZM394.823 311.749C394.823 309.561 395.341 307.803 396.378 306.476C397.416 305.14 398.773 304.472 400.452 304.472C402.122 304.472 403.445 305.043 404.42 306.186V298.75H406.859V319H404.618L404.5 317.471C403.524 318.666 402.166 319.264 400.426 319.264C398.773 319.264 397.424 318.587 396.378 317.233C395.341 315.88 394.823 314.113 394.823 311.934V311.749ZM397.262 312.026C397.262 313.643 397.596 314.909 398.264 315.823C398.932 316.737 399.854 317.194 401.032 317.194C402.579 317.194 403.708 316.5 404.42 315.111V308.559C403.691 307.214 402.57 306.542 401.059 306.542C399.863 306.542 398.932 307.003 398.264 307.926C397.596 308.849 397.262 310.215 397.262 312.026ZM419.292 310.431L410.577 307.016V304.511L421.836 309.495V311.419L410.577 316.416V313.885L419.292 310.431Z" fill="black"/>
<path d="M63.9834 383.34L69.4854 385.563V387.286L62.2959 383.955V382.672L69.4854 379.35V381.072L63.9834 383.34ZM77.5889 386.478C77.5889 386.038 77.4219 385.698 77.0879 385.458C76.7598 385.212 76.1826 385.001 75.3564 384.825C74.5361 384.649 73.8828 384.438 73.3965 384.192C72.916 383.946 72.5586 383.653 72.3242 383.313C72.0957 382.974 71.9814 382.569 71.9814 382.101C71.9814 381.321 72.3096 380.662 72.9658 380.123C73.6279 379.584 74.4717 379.314 75.4971 379.314C76.5752 379.314 77.4482 379.593 78.1162 380.149C78.79 380.706 79.127 381.418 79.127 382.285H77.4922C77.4922 381.84 77.3018 381.456 76.9209 381.134C76.5459 380.812 76.0713 380.65 75.4971 380.65C74.9053 380.65 74.4424 380.779 74.1084 381.037C73.7744 381.295 73.6074 381.632 73.6074 382.048C73.6074 382.44 73.7627 382.736 74.0732 382.936C74.3838 383.135 74.9434 383.325 75.752 383.507C76.5664 383.688 77.2256 383.905 77.7295 384.157C78.2334 384.409 78.6055 384.714 78.8457 385.071C79.0918 385.423 79.2148 385.854 79.2148 386.363C79.2148 387.213 78.875 387.896 78.1953 388.411C77.5156 388.921 76.6338 389.176 75.5498 389.176C74.7881 389.176 74.1143 389.041 73.5283 388.771C72.9424 388.502 72.4824 388.127 72.1484 387.646C71.8203 387.16 71.6562 386.636 71.6562 386.073H73.2822C73.3115 386.618 73.5283 387.052 73.9326 387.374C74.3428 387.69 74.8818 387.849 75.5498 387.849C76.165 387.849 76.6572 387.726 77.0264 387.479C77.4014 387.228 77.5889 386.894 77.5889 386.478ZM89.3662 384.351C89.3662 385.798 89.0352 386.964 88.373 387.849C87.7109 388.733 86.8145 389.176 85.6836 389.176C84.5293 389.176 83.6211 388.81 82.959 388.077V392.656H81.333V379.49H82.8184L82.8975 380.545C83.5596 379.725 84.4795 379.314 85.6572 379.314C86.7998 379.314 87.7021 379.745 88.3643 380.606C89.0322 381.468 89.3662 382.666 89.3662 384.201V384.351ZM87.7402 384.166C87.7402 383.094 87.5117 382.247 87.0547 381.626C86.5977 381.005 85.9707 380.694 85.1738 380.694C84.1895 380.694 83.4512 381.131 82.959 382.004V386.548C83.4453 387.415 84.1895 387.849 85.1914 387.849C85.9707 387.849 86.5889 387.541 87.0459 386.926C87.5088 386.305 87.7402 385.385 87.7402 384.166ZM97.3115 389C97.2178 388.812 97.1416 388.479 97.083 387.998C96.3271 388.783 95.4248 389.176 94.376 389.176C93.4385 389.176 92.668 388.912 92.0645 388.385C91.4668 387.852 91.168 387.178 91.168 386.363C91.168 385.373 91.543 384.605 92.293 384.061C93.0488 383.51 94.1094 383.234 95.4746 383.234H97.0566V382.487C97.0566 381.919 96.8867 381.468 96.5469 381.134C96.207 380.794 95.7061 380.624 95.0439 380.624C94.4639 380.624 93.9775 380.771 93.585 381.063C93.1924 381.356 92.9961 381.711 92.9961 382.127H91.3613C91.3613 381.652 91.5283 381.195 91.8623 380.756C92.2021 380.311 92.6592 379.959 93.2334 379.701C93.8135 379.443 94.4492 379.314 95.1406 379.314C96.2363 379.314 97.0947 379.59 97.7158 380.141C98.3369 380.686 98.6592 381.438 98.6826 382.399V386.776C98.6826 387.649 98.7939 388.344 99.0166 388.859V389H97.3115ZM94.6133 387.761C95.123 387.761 95.6064 387.629 96.0635 387.365C96.5205 387.102 96.8516 386.759 97.0566 386.337V384.386H95.7822C93.79 384.386 92.7939 384.969 92.7939 386.135C92.7939 386.645 92.9639 387.043 93.3037 387.33C93.6436 387.617 94.0801 387.761 94.6133 387.761ZM102.77 379.49L102.822 380.686C103.549 379.771 104.498 379.314 105.67 379.314C107.68 379.314 108.693 380.448 108.711 382.716V389H107.085V382.707C107.079 382.021 106.921 381.515 106.61 381.187C106.306 380.858 105.828 380.694 105.178 380.694C104.65 380.694 104.188 380.835 103.789 381.116C103.391 381.397 103.08 381.767 102.857 382.224V389H101.231V379.49H102.77ZM116.92 383.287L111.11 381.011V379.341L118.616 382.663V383.946L111.11 387.277V385.59L116.92 383.287ZM34.7012 399.537C34.7012 398.654 34.8184 397.807 35.0527 396.994C35.291 396.182 35.6445 395.443 36.1133 394.779C36.582 394.115 37.0684 393.646 37.5723 393.373L37.7949 394.088C37.2246 394.525 36.7559 395.193 36.3887 396.092C36.0254 396.99 35.8262 397.996 35.791 399.109L35.7852 399.607C35.7852 401.115 36.0605 402.424 36.6113 403.533C36.9434 404.197 37.3379 404.717 37.7949 405.092L37.5723 405.754C37.0527 405.465 36.5566 404.98 36.084 404.301C35.1621 402.973 34.7012 401.385 34.7012 399.537ZM41.3867 402.232C41.7734 402.232 42.1113 402.115 42.4004 401.881C42.6895 401.646 42.8496 401.354 42.8809 401.002H43.9062C43.8867 401.365 43.7617 401.711 43.5312 402.039C43.3008 402.367 42.9922 402.629 42.6055 402.824C42.2227 403.02 41.8164 403.117 41.3867 403.117C40.5234 403.117 39.8359 402.83 39.3242 402.256C38.8164 401.678 38.5625 400.889 38.5625 399.889V399.707C38.5625 399.09 38.6758 398.541 38.9023 398.061C39.1289 397.58 39.4531 397.207 39.875 396.941C40.3008 396.676 40.8027 396.543 41.3809 396.543C42.0918 396.543 42.6816 396.756 43.1504 397.182C43.623 397.607 43.875 398.16 43.9062 398.84H42.8809C42.8496 398.43 42.6934 398.094 42.4121 397.832C42.1348 397.566 41.791 397.434 41.3809 397.434C40.8301 397.434 40.4023 397.633 40.0977 398.031C39.7969 398.426 39.6465 398.998 39.6465 399.748V399.953C39.6465 400.684 39.7969 401.246 40.0977 401.641C40.3984 402.035 40.8281 402.232 41.3867 402.232ZM44.8379 399.771C44.8379 399.15 44.959 398.592 45.2012 398.096C45.4473 397.6 45.7871 397.217 46.2207 396.947C46.6582 396.678 47.1562 396.543 47.7148 396.543C48.5781 396.543 49.2754 396.842 49.8066 397.439C50.3418 398.037 50.6094 398.832 50.6094 399.824V399.9C50.6094 400.518 50.4902 401.072 50.252 401.564C50.0176 402.053 49.6797 402.434 49.2383 402.707C48.8008 402.98 48.2969 403.117 47.7266 403.117C46.8672 403.117 46.1699 402.818 45.6348 402.221C45.1035 401.623 44.8379 400.832 44.8379 399.848V399.771ZM45.9277 399.9C45.9277 400.604 46.0898 401.168 46.4141 401.594C46.7422 402.02 47.1797 402.232 47.7266 402.232C48.2773 402.232 48.7148 402.018 49.0391 401.588C49.3633 401.154 49.5254 400.549 49.5254 399.771C49.5254 399.076 49.3594 398.514 49.0273 398.084C48.6992 397.65 48.2617 397.434 47.7148 397.434C47.1797 397.434 46.748 397.646 46.4199 398.072C46.0918 398.498 45.9277 399.107 45.9277 399.9ZM52.9941 396.66L53.0293 397.457C53.5137 396.848 54.1465 396.543 54.9277 396.543C56.2676 396.543 56.9434 397.299 56.9551 398.811V403H55.8711V398.805C55.8672 398.348 55.7617 398.01 55.5547 397.791C55.3516 397.572 55.0332 397.463 54.5996 397.463C54.248 397.463 53.9395 397.557 53.6738 397.744C53.4082 397.932 53.2012 398.178 53.0527 398.482V403H51.9688V396.66H52.9941ZM60.0605 395.125V396.66H61.2441V397.498H60.0605V401.43C60.0605 401.684 60.1133 401.875 60.2188 402.004C60.3242 402.129 60.5039 402.191 60.7578 402.191C60.8828 402.191 61.0547 402.168 61.2734 402.121V403C60.9883 403.078 60.7109 403.117 60.4414 403.117C59.957 403.117 59.5918 402.971 59.3457 402.678C59.0996 402.385 58.9766 401.969 58.9766 401.43V397.498H57.8223V396.66H58.9766V395.125H60.0605ZM66.4297 403C66.3672 402.875 66.3164 402.652 66.2773 402.332C65.7734 402.855 65.1719 403.117 64.4727 403.117C63.8477 403.117 63.334 402.941 62.9316 402.59C62.5332 402.234 62.334 401.785 62.334 401.242C62.334 400.582 62.584 400.07 63.084 399.707C63.5879 399.34 64.2949 399.156 65.2051 399.156H66.2598V398.658C66.2598 398.279 66.1465 397.979 65.9199 397.756C65.6934 397.529 65.3594 397.416 64.918 397.416C64.5312 397.416 64.207 397.514 63.9453 397.709C63.6836 397.904 63.5527 398.141 63.5527 398.418H62.4629C62.4629 398.102 62.5742 397.797 62.7969 397.504C63.0234 397.207 63.3281 396.973 63.7109 396.801C64.0977 396.629 64.5215 396.543 64.9824 396.543C65.7129 396.543 66.2852 396.727 66.6992 397.094C67.1133 397.457 67.3281 397.959 67.3438 398.6V401.518C67.3438 402.1 67.418 402.562 67.5664 402.906V403H66.4297ZM64.6309 402.174C64.9707 402.174 65.293 402.086 65.5977 401.91C65.9023 401.734 66.123 401.506 66.2598 401.225V399.924H65.4102C64.082 399.924 63.418 400.312 63.418 401.09C63.418 401.43 63.5312 401.695 63.7578 401.887C63.9844 402.078 64.2754 402.174 64.6309 402.174ZM70.2207 403H69.1367V396.66H70.2207V403ZM69.0488 394.979C69.0488 394.803 69.1016 394.654 69.207 394.533C69.3164 394.412 69.4766 394.352 69.6875 394.352C69.8984 394.352 70.0586 394.412 70.168 394.533C70.2773 394.654 70.332 394.803 70.332 394.979C70.332 395.154 70.2773 395.301 70.168 395.418C70.0586 395.535 69.8984 395.594 69.6875 395.594C69.4766 395.594 69.3164 395.535 69.207 395.418C69.1016 395.301 69.0488 395.154 69.0488 394.979ZM72.9863 396.66L73.0215 397.457C73.5059 396.848 74.1387 396.543 74.9199 396.543C76.2598 396.543 76.9355 397.299 76.9473 398.811V403H75.8633V398.805C75.8594 398.348 75.7539 398.01 75.5469 397.791C75.3438 397.572 75.0254 397.463 74.5918 397.463C74.2402 397.463 73.9316 397.557 73.666 397.744C73.4004 397.932 73.1934 398.178 73.0449 398.482V403H71.9609V396.66H72.9863ZM82.2734 401.318C82.2734 401.025 82.1621 400.799 81.9395 400.639C81.7207 400.475 81.3359 400.334 80.7852 400.217C80.2383 400.1 79.8027 399.959 79.4785 399.795C79.1582 399.631 78.9199 399.436 78.7637 399.209C78.6113 398.982 78.5352 398.713 78.5352 398.4C78.5352 397.881 78.7539 397.441 79.1914 397.082C79.6328 396.723 80.1953 396.543 80.8789 396.543C81.5977 396.543 82.1797 396.729 82.625 397.1C83.0742 397.471 83.2988 397.945 83.2988 398.523H82.209C82.209 398.227 82.082 397.971 81.8281 397.756C81.5781 397.541 81.2617 397.434 80.8789 397.434C80.4844 397.434 80.1758 397.52 79.9531 397.691C79.7305 397.863 79.6191 398.088 79.6191 398.365C79.6191 398.627 79.7227 398.824 79.9297 398.957C80.1367 399.09 80.5098 399.217 81.0488 399.338C81.5918 399.459 82.0312 399.604 82.3672 399.771C82.7031 399.939 82.9512 400.143 83.1113 400.381C83.2754 400.615 83.3574 400.902 83.3574 401.242C83.3574 401.809 83.1309 402.264 82.6777 402.607C82.2246 402.947 81.6367 403.117 80.9141 403.117C80.4062 403.117 79.957 403.027 79.5664 402.848C79.1758 402.668 78.8691 402.418 78.6465 402.098C78.4277 401.773 78.3184 401.424 78.3184 401.049H79.4023C79.4219 401.412 79.5664 401.701 79.8359 401.916C80.1094 402.127 80.4688 402.232 80.9141 402.232C81.3242 402.232 81.6523 402.15 81.8984 401.986C82.1484 401.818 82.2734 401.596 82.2734 401.318ZM88.7715 396.66L88.8066 397.457C89.291 396.848 89.9238 396.543 90.7051 396.543C92.0449 396.543 92.7207 397.299 92.7324 398.811V403H91.6484V398.805C91.6445 398.348 91.5391 398.01 91.332 397.791C91.1289 397.572 90.8105 397.463 90.377 397.463C90.0254 397.463 89.7168 397.557 89.4512 397.744C89.1855 397.932 88.9785 398.178 88.8301 398.482V403H87.7461V396.66H88.7715ZM94.0801 399.771C94.0801 399.15 94.2012 398.592 94.4434 398.096C94.6895 397.6 95.0293 397.217 95.4629 396.947C95.9004 396.678 96.3984 396.543 96.957 396.543C97.8203 396.543 98.5176 396.842 99.0488 397.439C99.584 398.037 99.8516 398.832 99.8516 399.824V399.9C99.8516 400.518 99.7324 401.072 99.4941 401.564C99.2598 402.053 98.9219 402.434 98.4805 402.707C98.043 402.98 97.5391 403.117 96.9688 403.117C96.1094 403.117 95.4121 402.818 94.877 402.221C94.3457 401.623 94.0801 400.832 94.0801 399.848V399.771ZM95.1699 399.9C95.1699 400.604 95.332 401.168 95.6562 401.594C95.9844 402.02 96.4219 402.232 96.9688 402.232C97.5195 402.232 97.957 402.018 98.2812 401.588C98.6055 401.154 98.7676 400.549 98.7676 399.771C98.7676 399.076 98.6016 398.514 98.2695 398.084C97.9414 397.65 97.5039 397.434 96.957 397.434C96.4219 397.434 95.9902 397.646 95.6621 398.072C95.334 398.498 95.1699 399.107 95.1699 399.9ZM102.682 395.125V396.66H103.865V397.498H102.682V401.43C102.682 401.684 102.734 401.875 102.84 402.004C102.945 402.129 103.125 402.191 103.379 402.191C103.504 402.191 103.676 402.168 103.895 402.121V403C103.609 403.078 103.332 403.117 103.062 403.117C102.578 403.117 102.213 402.971 101.967 402.678C101.721 402.385 101.598 401.969 101.598 401.43V397.498H100.443V396.66H101.598V395.125H102.682ZM106.314 403H105.23V396.66H106.314V403ZM105.143 394.979C105.143 394.803 105.195 394.654 105.301 394.533C105.41 394.412 105.57 394.352 105.781 394.352C105.992 394.352 106.152 394.412 106.262 394.533C106.371 394.654 106.426 394.803 106.426 394.979C106.426 395.154 106.371 395.301 106.262 395.418C106.152 395.535 105.992 395.594 105.781 395.594C105.57 395.594 105.41 395.535 105.301 395.418C105.195 395.301 105.143 395.154 105.143 394.979ZM110.598 402.232C110.984 402.232 111.322 402.115 111.611 401.881C111.9 401.646 112.061 401.354 112.092 401.002H113.117C113.098 401.365 112.973 401.711 112.742 402.039C112.512 402.367 112.203 402.629 111.816 402.824C111.434 403.02 111.027 403.117 110.598 403.117C109.734 403.117 109.047 402.83 108.535 402.256C108.027 401.678 107.773 400.889 107.773 399.889V399.707C107.773 399.09 107.887 398.541 108.113 398.061C108.34 397.58 108.664 397.207 109.086 396.941C109.512 396.676 110.014 396.543 110.592 396.543C111.303 396.543 111.893 396.756 112.361 397.182C112.834 397.607 113.086 398.16 113.117 398.84H112.092C112.061 398.43 111.904 398.094 111.623 397.832C111.346 397.566 111.002 397.434 110.592 397.434C110.041 397.434 109.613 397.633 109.309 398.031C109.008 398.426 108.857 398.998 108.857 399.748V399.953C108.857 400.684 109.008 401.246 109.309 401.641C109.609 402.035 110.039 402.232 110.598 402.232ZM116.967 403.117C116.107 403.117 115.408 402.836 114.869 402.273C114.33 401.707 114.061 400.951 114.061 400.006V399.807C114.061 399.178 114.18 398.617 114.418 398.125C114.66 397.629 114.996 397.242 115.426 396.965C115.859 396.684 116.328 396.543 116.832 396.543C117.656 396.543 118.297 396.814 118.754 397.357C119.211 397.9 119.439 398.678 119.439 399.689V400.141H115.145C115.16 400.766 115.342 401.271 115.689 401.658C116.041 402.041 116.486 402.232 117.025 402.232C117.408 402.232 117.732 402.154 117.998 401.998C118.264 401.842 118.496 401.635 118.695 401.377L119.357 401.893C118.826 402.709 118.029 403.117 116.967 403.117ZM116.832 397.434C116.395 397.434 116.027 397.594 115.73 397.914C115.434 398.23 115.25 398.676 115.18 399.25H118.355V399.168C118.324 398.617 118.176 398.191 117.91 397.891C117.645 397.586 117.285 397.434 116.832 397.434ZM125.146 395.125V396.66H126.33V397.498H125.146V401.43C125.146 401.684 125.199 401.875 125.305 402.004C125.41 402.129 125.59 402.191 125.844 402.191C125.969 402.191 126.141 402.168 126.359 402.121V403C126.074 403.078 125.797 403.117 125.527 403.117C125.043 403.117 124.678 402.971 124.432 402.678C124.186 402.385 124.062 401.969 124.062 401.43V397.498H122.908V396.66H124.062V395.125H125.146ZM128.779 403H127.695V396.66H128.779V403ZM127.607 394.979C127.607 394.803 127.66 394.654 127.766 394.533C127.875 394.412 128.035 394.352 128.246 394.352C128.457 394.352 128.617 394.412 128.727 394.533C128.836 394.654 128.891 394.803 128.891 394.979C128.891 395.154 128.836 395.301 128.727 395.418C128.617 395.535 128.457 395.594 128.246 395.594C128.035 395.594 127.875 395.535 127.766 395.418C127.66 395.301 127.607 395.154 127.607 394.979ZM131.99 395.125V396.66H133.174V397.498H131.99V401.43C131.99 401.684 132.043 401.875 132.148 402.004C132.254 402.129 132.434 402.191 132.688 402.191C132.812 402.191 132.984 402.168 133.203 402.121V403C132.918 403.078 132.641 403.117 132.371 403.117C131.887 403.117 131.521 402.971 131.275 402.678C131.029 402.385 130.906 401.969 130.906 401.43V397.498H129.752V396.66H130.906V395.125H131.99ZM135.623 403H134.539V394H135.623V403ZM139.994 403.117C139.135 403.117 138.436 402.836 137.896 402.273C137.357 401.707 137.088 400.951 137.088 400.006V399.807C137.088 399.178 137.207 398.617 137.445 398.125C137.688 397.629 138.023 397.242 138.453 396.965C138.887 396.684 139.355 396.543 139.859 396.543C140.684 396.543 141.324 396.814 141.781 397.357C142.238 397.9 142.467 398.678 142.467 399.689V400.141H138.172C138.188 400.766 138.369 401.271 138.717 401.658C139.068 402.041 139.514 402.232 140.053 402.232C140.436 402.232 140.76 402.154 141.025 401.998C141.291 401.842 141.523 401.635 141.723 401.377L142.385 401.893C141.854 402.709 141.057 403.117 139.994 403.117ZM139.859 397.434C139.422 397.434 139.055 397.594 138.758 397.914C138.461 398.23 138.277 398.676 138.207 399.25H141.383V399.168C141.352 398.617 141.203 398.191 140.938 397.891C140.672 397.586 140.312 397.434 139.859 397.434ZM146.229 399.596C146.229 400.467 146.113 401.303 145.883 402.104C145.656 402.9 145.307 403.637 144.834 404.312C144.365 404.988 143.873 405.469 143.357 405.754L143.129 405.092C143.73 404.631 144.213 403.916 144.576 402.947C144.943 401.975 145.131 400.896 145.139 399.713V399.525C145.139 398.705 145.053 397.943 144.881 397.24C144.709 396.533 144.469 395.9 144.16 395.342C143.855 394.783 143.512 394.348 143.129 394.035L143.357 393.373C143.873 393.658 144.363 394.135 144.828 394.803C145.297 395.471 145.646 396.207 145.877 397.012C146.111 397.816 146.229 398.678 146.229 399.596Z" fill="black"/>
<path d="M372.983 381.34L378.485 383.563V385.286L371.296 381.955V380.672L378.485 377.35V379.072L372.983 381.34ZM386.589 384.478C386.589 384.038 386.422 383.698 386.088 383.458C385.76 383.212 385.183 383.001 384.356 382.825C383.536 382.649 382.883 382.438 382.396 382.192C381.916 381.946 381.559 381.653 381.324 381.313C381.096 380.974 380.981 380.569 380.981 380.101C380.981 379.321 381.31 378.662 381.966 378.123C382.628 377.584 383.472 377.314 384.497 377.314C385.575 377.314 386.448 377.593 387.116 378.149C387.79 378.706 388.127 379.418 388.127 380.285H386.492C386.492 379.84 386.302 379.456 385.921 379.134C385.546 378.812 385.071 378.65 384.497 378.65C383.905 378.65 383.442 378.779 383.108 379.037C382.774 379.295 382.607 379.632 382.607 380.048C382.607 380.44 382.763 380.736 383.073 380.936C383.384 381.135 383.943 381.325 384.752 381.507C385.566 381.688 386.226 381.905 386.729 382.157C387.233 382.409 387.605 382.714 387.846 383.071C388.092 383.423 388.215 383.854 388.215 384.363C388.215 385.213 387.875 385.896 387.195 386.411C386.516 386.921 385.634 387.176 384.55 387.176C383.788 387.176 383.114 387.041 382.528 386.771C381.942 386.502 381.482 386.127 381.148 385.646C380.82 385.16 380.656 384.636 380.656 384.073H382.282C382.312 384.618 382.528 385.052 382.933 385.374C383.343 385.69 383.882 385.849 384.55 385.849C385.165 385.849 385.657 385.726 386.026 385.479C386.401 385.228 386.589 384.894 386.589 384.478ZM398.366 382.351C398.366 383.798 398.035 384.964 397.373 385.849C396.711 386.733 395.814 387.176 394.684 387.176C393.529 387.176 392.621 386.81 391.959 386.077V390.656H390.333V377.49H391.818L391.897 378.545C392.56 377.725 393.479 377.314 394.657 377.314C395.8 377.314 396.702 377.745 397.364 378.606C398.032 379.468 398.366 380.666 398.366 382.201V382.351ZM396.74 382.166C396.74 381.094 396.512 380.247 396.055 379.626C395.598 379.005 394.971 378.694 394.174 378.694C393.189 378.694 392.451 379.131 391.959 380.004V384.548C392.445 385.415 393.189 385.849 394.191 385.849C394.971 385.849 395.589 385.541 396.046 384.926C396.509 384.305 396.74 383.385 396.74 382.166ZM406.312 387C406.218 386.812 406.142 386.479 406.083 385.998C405.327 386.783 404.425 387.176 403.376 387.176C402.438 387.176 401.668 386.912 401.064 386.385C400.467 385.852 400.168 385.178 400.168 384.363C400.168 383.373 400.543 382.605 401.293 382.061C402.049 381.51 403.109 381.234 404.475 381.234H406.057V380.487C406.057 379.919 405.887 379.468 405.547 379.134C405.207 378.794 404.706 378.624 404.044 378.624C403.464 378.624 402.978 378.771 402.585 379.063C402.192 379.356 401.996 379.711 401.996 380.127H400.361C400.361 379.652 400.528 379.195 400.862 378.756C401.202 378.311 401.659 377.959 402.233 377.701C402.813 377.443 403.449 377.314 404.141 377.314C405.236 377.314 406.095 377.59 406.716 378.141C407.337 378.686 407.659 379.438 407.683 380.399V384.776C407.683 385.649 407.794 386.344 408.017 386.859V387H406.312ZM403.613 385.761C404.123 385.761 404.606 385.629 405.063 385.365C405.521 385.102 405.852 384.759 406.057 384.337V382.386H404.782C402.79 382.386 401.794 382.969 401.794 384.135C401.794 384.645 401.964 385.043 402.304 385.33C402.644 385.617 403.08 385.761 403.613 385.761ZM411.77 377.49L411.822 378.686C412.549 377.771 413.498 377.314 414.67 377.314C416.68 377.314 417.693 378.448 417.711 380.716V387H416.085V380.707C416.079 380.021 415.921 379.515 415.61 379.187C415.306 378.858 414.828 378.694 414.178 378.694C413.65 378.694 413.188 378.835 412.789 379.116C412.391 379.397 412.08 379.767 411.857 380.224V387H410.231V377.49H411.77ZM425.92 381.287L420.11 379.011V377.341L427.616 380.663V381.946L420.11 385.277V383.59L425.92 381.287ZM341.932 397.537C341.932 396.654 342.049 395.807 342.283 394.994C342.521 394.182 342.875 393.443 343.344 392.779C343.812 392.115 344.299 391.646 344.803 391.373L345.025 392.088C344.455 392.525 343.986 393.193 343.619 394.092C343.256 394.99 343.057 395.996 343.021 397.109L343.016 397.607C343.016 399.115 343.291 400.424 343.842 401.533C344.174 402.197 344.568 402.717 345.025 403.092L344.803 403.754C344.283 403.465 343.787 402.98 343.314 402.301C342.393 400.973 341.932 399.385 341.932 397.537ZM348.617 400.232C349.004 400.232 349.342 400.115 349.631 399.881C349.92 399.646 350.08 399.354 350.111 399.002H351.137C351.117 399.365 350.992 399.711 350.762 400.039C350.531 400.367 350.223 400.629 349.836 400.824C349.453 401.02 349.047 401.117 348.617 401.117C347.754 401.117 347.066 400.83 346.555 400.256C346.047 399.678 345.793 398.889 345.793 397.889V397.707C345.793 397.09 345.906 396.541 346.133 396.061C346.359 395.58 346.684 395.207 347.105 394.941C347.531 394.676 348.033 394.543 348.611 394.543C349.322 394.543 349.912 394.756 350.381 395.182C350.854 395.607 351.105 396.16 351.137 396.84H350.111C350.08 396.43 349.924 396.094 349.643 395.832C349.365 395.566 349.021 395.434 348.611 395.434C348.061 395.434 347.633 395.633 347.328 396.031C347.027 396.426 346.877 396.998 346.877 397.748V397.953C346.877 398.684 347.027 399.246 347.328 399.641C347.629 400.035 348.059 400.232 348.617 400.232ZM352.068 397.771C352.068 397.15 352.189 396.592 352.432 396.096C352.678 395.6 353.018 395.217 353.451 394.947C353.889 394.678 354.387 394.543 354.945 394.543C355.809 394.543 356.506 394.842 357.037 395.439C357.572 396.037 357.84 396.832 357.84 397.824V397.9C357.84 398.518 357.721 399.072 357.482 399.564C357.248 400.053 356.91 400.434 356.469 400.707C356.031 400.98 355.527 401.117 354.957 401.117C354.098 401.117 353.4 400.818 352.865 400.221C352.334 399.623 352.068 398.832 352.068 397.848V397.771ZM353.158 397.9C353.158 398.604 353.32 399.168 353.645 399.594C353.973 400.02 354.41 400.232 354.957 400.232C355.508 400.232 355.945 400.018 356.27 399.588C356.594 399.154 356.756 398.549 356.756 397.771C356.756 397.076 356.59 396.514 356.258 396.084C355.93 395.65 355.492 395.434 354.945 395.434C354.41 395.434 353.979 395.646 353.65 396.072C353.322 396.498 353.158 397.107 353.158 397.9ZM360.225 394.66L360.26 395.457C360.744 394.848 361.377 394.543 362.158 394.543C363.498 394.543 364.174 395.299 364.186 396.811V401H363.102V396.805C363.098 396.348 362.992 396.01 362.785 395.791C362.582 395.572 362.264 395.463 361.83 395.463C361.479 395.463 361.17 395.557 360.904 395.744C360.639 395.932 360.432 396.178 360.283 396.482V401H359.199V394.66H360.225ZM367.291 393.125V394.66H368.475V395.498H367.291V399.43C367.291 399.684 367.344 399.875 367.449 400.004C367.555 400.129 367.734 400.191 367.988 400.191C368.113 400.191 368.285 400.168 368.504 400.121V401C368.219 401.078 367.941 401.117 367.672 401.117C367.188 401.117 366.822 400.971 366.576 400.678C366.33 400.385 366.207 399.969 366.207 399.43V395.498H365.053V394.66H366.207V393.125H367.291ZM373.66 401C373.598 400.875 373.547 400.652 373.508 400.332C373.004 400.855 372.402 401.117 371.703 401.117C371.078 401.117 370.564 400.941 370.162 400.59C369.764 400.234 369.564 399.785 369.564 399.242C369.564 398.582 369.814 398.07 370.314 397.707C370.818 397.34 371.525 397.156 372.436 397.156H373.49V396.658C373.49 396.279 373.377 395.979 373.15 395.756C372.924 395.529 372.59 395.416 372.148 395.416C371.762 395.416 371.438 395.514 371.176 395.709C370.914 395.904 370.783 396.141 370.783 396.418H369.693C369.693 396.102 369.805 395.797 370.027 395.504C370.254 395.207 370.559 394.973 370.941 394.801C371.328 394.629 371.752 394.543 372.213 394.543C372.943 394.543 373.516 394.727 373.93 395.094C374.344 395.457 374.559 395.959 374.574 396.6V399.518C374.574 400.1 374.648 400.562 374.797 400.906V401H373.66ZM371.861 400.174C372.201 400.174 372.523 400.086 372.828 399.91C373.133 399.734 373.354 399.506 373.49 399.225V397.924H372.641C371.312 397.924 370.648 398.312 370.648 399.09C370.648 399.43 370.762 399.695 370.988 399.887C371.215 400.078 371.506 400.174 371.861 400.174ZM377.451 401H376.367V394.66H377.451V401ZM376.279 392.979C376.279 392.803 376.332 392.654 376.438 392.533C376.547 392.412 376.707 392.352 376.918 392.352C377.129 392.352 377.289 392.412 377.398 392.533C377.508 392.654 377.562 392.803 377.562 392.979C377.562 393.154 377.508 393.301 377.398 393.418C377.289 393.535 377.129 393.594 376.918 393.594C376.707 393.594 376.547 393.535 376.438 393.418C376.332 393.301 376.279 393.154 376.279 392.979ZM380.217 394.66L380.252 395.457C380.736 394.848 381.369 394.543 382.15 394.543C383.49 394.543 384.166 395.299 384.178 396.811V401H383.094V396.805C383.09 396.348 382.984 396.01 382.777 395.791C382.574 395.572 382.256 395.463 381.822 395.463C381.471 395.463 381.162 395.557 380.896 395.744C380.631 395.932 380.424 396.178 380.275 396.482V401H379.191V394.66H380.217ZM389.504 399.318C389.504 399.025 389.393 398.799 389.17 398.639C388.951 398.475 388.566 398.334 388.016 398.217C387.469 398.1 387.033 397.959 386.709 397.795C386.389 397.631 386.15 397.436 385.994 397.209C385.842 396.982 385.766 396.713 385.766 396.4C385.766 395.881 385.984 395.441 386.422 395.082C386.863 394.723 387.426 394.543 388.109 394.543C388.828 394.543 389.41 394.729 389.855 395.1C390.305 395.471 390.529 395.945 390.529 396.523H389.439C389.439 396.227 389.312 395.971 389.059 395.756C388.809 395.541 388.492 395.434 388.109 395.434C387.715 395.434 387.406 395.52 387.184 395.691C386.961 395.863 386.85 396.088 386.85 396.365C386.85 396.627 386.953 396.824 387.16 396.957C387.367 397.09 387.74 397.217 388.279 397.338C388.822 397.459 389.262 397.604 389.598 397.771C389.934 397.939 390.182 398.143 390.342 398.381C390.506 398.615 390.588 398.902 390.588 399.242C390.588 399.809 390.361 400.264 389.908 400.607C389.455 400.947 388.867 401.117 388.145 401.117C387.637 401.117 387.188 401.027 386.797 400.848C386.406 400.668 386.1 400.418 385.877 400.098C385.658 399.773 385.549 399.424 385.549 399.049H386.633C386.652 399.412 386.797 399.701 387.066 399.916C387.34 400.127 387.699 400.232 388.145 400.232C388.555 400.232 388.883 400.15 389.129 399.986C389.379 399.818 389.504 399.596 389.504 399.318ZM396.002 394.66L396.037 395.457C396.521 394.848 397.154 394.543 397.936 394.543C399.275 394.543 399.951 395.299 399.963 396.811V401H398.879V396.805C398.875 396.348 398.77 396.01 398.562 395.791C398.359 395.572 398.041 395.463 397.607 395.463C397.256 395.463 396.947 395.557 396.682 395.744C396.416 395.932 396.209 396.178 396.061 396.482V401H394.977V394.66H396.002ZM401.311 397.771C401.311 397.15 401.432 396.592 401.674 396.096C401.92 395.6 402.26 395.217 402.693 394.947C403.131 394.678 403.629 394.543 404.188 394.543C405.051 394.543 405.748 394.842 406.279 395.439C406.814 396.037 407.082 396.832 407.082 397.824V397.9C407.082 398.518 406.963 399.072 406.725 399.564C406.49 400.053 406.152 400.434 405.711 400.707C405.273 400.98 404.77 401.117 404.199 401.117C403.34 401.117 402.643 400.818 402.107 400.221C401.576 399.623 401.311 398.832 401.311 397.848V397.771ZM402.4 397.9C402.4 398.604 402.562 399.168 402.887 399.594C403.215 400.02 403.652 400.232 404.199 400.232C404.75 400.232 405.188 400.018 405.512 399.588C405.836 399.154 405.998 398.549 405.998 397.771C405.998 397.076 405.832 396.514 405.5 396.084C405.172 395.65 404.734 395.434 404.188 395.434C403.652 395.434 403.221 395.646 402.893 396.072C402.564 396.498 402.4 397.107 402.4 397.9ZM409.912 393.125V394.66H411.096V395.498H409.912V399.43C409.912 399.684 409.965 399.875 410.07 400.004C410.176 400.129 410.355 400.191 410.609 400.191C410.734 400.191 410.906 400.168 411.125 400.121V401C410.84 401.078 410.562 401.117 410.293 401.117C409.809 401.117 409.443 400.971 409.197 400.678C408.951 400.385 408.828 399.969 408.828 399.43V395.498H407.674V394.66H408.828V393.125H409.912ZM413.545 401H412.461V394.66H413.545V401ZM412.373 392.979C412.373 392.803 412.426 392.654 412.531 392.533C412.641 392.412 412.801 392.352 413.012 392.352C413.223 392.352 413.383 392.412 413.492 392.533C413.602 392.654 413.656 392.803 413.656 392.979C413.656 393.154 413.602 393.301 413.492 393.418C413.383 393.535 413.223 393.594 413.012 393.594C412.801 393.594 412.641 393.535 412.531 393.418C412.426 393.301 412.373 393.154 412.373 392.979ZM417.828 400.232C418.215 400.232 418.553 400.115 418.842 399.881C419.131 399.646 419.291 399.354 419.322 399.002H420.348C420.328 399.365 420.203 399.711 419.973 400.039C419.742 400.367 419.434 400.629 419.047 400.824C418.664 401.02 418.258 401.117 417.828 401.117C416.965 401.117 416.277 400.83 415.766 400.256C415.258 399.678 415.004 398.889 415.004 397.889V397.707C415.004 397.09 415.117 396.541 415.344 396.061C415.57 395.58 415.895 395.207 416.316 394.941C416.742 394.676 417.244 394.543 417.822 394.543C418.533 394.543 419.123 394.756 419.592 395.182C420.064 395.607 420.316 396.16 420.348 396.84H419.322C419.291 396.43 419.135 396.094 418.854 395.832C418.576 395.566 418.232 395.434 417.822 395.434C417.271 395.434 416.844 395.633 416.539 396.031C416.238 396.426 416.088 396.998 416.088 397.748V397.953C416.088 398.684 416.238 399.246 416.539 399.641C416.84 400.035 417.27 400.232 417.828 400.232ZM424.197 401.117C423.338 401.117 422.639 400.836 422.1 400.273C421.561 399.707 421.291 398.951 421.291 398.006V397.807C421.291 397.178 421.41 396.617 421.648 396.125C421.891 395.629 422.227 395.242 422.656 394.965C423.09 394.684 423.559 394.543 424.062 394.543C424.887 394.543 425.527 394.814 425.984 395.357C426.441 395.9 426.67 396.678 426.67 397.689V398.141H422.375C422.391 398.766 422.572 399.271 422.92 399.658C423.271 400.041 423.717 400.232 424.256 400.232C424.639 400.232 424.963 400.154 425.229 399.998C425.494 399.842 425.727 399.635 425.926 399.377L426.588 399.893C426.057 400.709 425.26 401.117 424.197 401.117ZM424.062 395.434C423.625 395.434 423.258 395.594 422.961 395.914C422.664 396.23 422.48 396.676 422.41 397.25H425.586V397.168C425.555 396.617 425.406 396.191 425.141 395.891C424.875 395.586 424.516 395.434 424.062 395.434ZM430.643 397.777C430.643 396.805 430.873 396.023 431.334 395.434C431.795 394.84 432.398 394.543 433.145 394.543C433.887 394.543 434.475 394.797 434.908 395.305V392H435.992V401H434.996L434.943 400.32C434.51 400.852 433.906 401.117 433.133 401.117C432.398 401.117 431.799 400.816 431.334 400.215C430.873 399.613 430.643 398.828 430.643 397.859V397.777ZM431.727 397.9C431.727 398.619 431.875 399.182 432.172 399.588C432.469 399.994 432.879 400.197 433.402 400.197C434.09 400.197 434.592 399.889 434.908 399.271V396.359C434.584 395.762 434.086 395.463 433.414 395.463C432.883 395.463 432.469 395.668 432.172 396.078C431.875 396.488 431.727 397.096 431.727 397.9ZM441.594 401C441.531 400.875 441.48 400.652 441.441 400.332C440.938 400.855 440.336 401.117 439.637 401.117C439.012 401.117 438.498 400.941 438.096 400.59C437.697 400.234 437.498 399.785 437.498 399.242C437.498 398.582 437.748 398.07 438.248 397.707C438.752 397.34 439.459 397.156 440.369 397.156H441.424V396.658C441.424 396.279 441.311 395.979 441.084 395.756C440.857 395.529 440.523 395.416 440.082 395.416C439.695 395.416 439.371 395.514 439.109 395.709C438.848 395.904 438.717 396.141 438.717 396.418H437.627C437.627 396.102 437.738 395.797 437.961 395.504C438.188 395.207 438.492 394.973 438.875 394.801C439.262 394.629 439.686 394.543 440.146 394.543C440.877 394.543 441.449 394.727 441.863 395.094C442.277 395.457 442.492 395.959 442.508 396.6V399.518C442.508 400.1 442.582 400.562 442.73 400.906V401H441.594ZM439.795 400.174C440.135 400.174 440.457 400.086 440.762 399.91C441.066 399.734 441.287 399.506 441.424 399.225V397.924H440.574C439.246 397.924 438.582 398.312 438.582 399.09C438.582 399.43 438.695 399.695 438.922 399.887C439.148 400.078 439.439 400.174 439.795 400.174ZM445.678 393.125V394.66H446.861V395.498H445.678V399.43C445.678 399.684 445.73 399.875 445.836 400.004C445.941 400.129 446.121 400.191 446.375 400.191C446.5 400.191 446.672 400.168 446.891 400.121V401C446.605 401.078 446.328 401.117 446.059 401.117C445.574 401.117 445.209 400.971 444.963 400.678C444.717 400.385 444.594 399.969 444.594 399.43V395.498H443.439V394.66H444.594V393.125H445.678ZM450.764 401.117C449.904 401.117 449.205 400.836 448.666 400.273C448.127 399.707 447.857 398.951 447.857 398.006V397.807C447.857 397.178 447.977 396.617 448.215 396.125C448.457 395.629 448.793 395.242 449.223 394.965C449.656 394.684 450.125 394.543 450.629 394.543C451.453 394.543 452.094 394.814 452.551 395.357C453.008 395.9 453.236 396.678 453.236 397.689V398.141H448.941C448.957 398.766 449.139 399.271 449.486 399.658C449.838 400.041 450.283 400.232 450.822 400.232C451.205 400.232 451.529 400.154 451.795 399.998C452.061 399.842 452.293 399.635 452.492 399.377L453.154 399.893C452.623 400.709 451.826 401.117 450.764 401.117ZM450.629 395.434C450.191 395.434 449.824 395.594 449.527 395.914C449.23 396.23 449.047 396.676 448.977 397.25H452.152V397.168C452.121 396.617 451.973 396.191 451.707 395.891C451.441 395.586 451.082 395.434 450.629 395.434ZM456.998 397.596C456.998 398.467 456.883 399.303 456.652 400.104C456.426 400.9 456.076 401.637 455.604 402.312C455.135 402.988 454.643 403.469 454.127 403.754L453.898 403.092C454.5 402.631 454.982 401.916 455.346 400.947C455.713 399.975 455.9 398.896 455.908 397.713V397.525C455.908 396.705 455.822 395.943 455.65 395.24C455.479 394.533 455.238 393.9 454.93 393.342C454.625 392.783 454.281 392.348 453.898 392.035L454.127 391.373C454.643 391.658 455.133 392.135 455.598 392.803C456.066 393.471 456.416 394.207 456.646 395.012C456.881 395.816 456.998 396.678 456.998 397.596Z" fill="black"/>
<path d="M214.85 385.768L221.88 388.609V390.81L212.694 386.554V384.914L221.88 380.669V382.87L214.85 385.768ZM232.662 393C232.542 392.76 232.444 392.334 232.37 391.72C231.404 392.723 230.251 393.225 228.911 393.225C227.713 393.225 226.728 392.888 225.957 392.214C225.193 391.533 224.812 390.672 224.812 389.631C224.812 388.366 225.291 387.385 226.249 386.688C227.215 385.985 228.57 385.633 230.314 385.633H232.336V384.678C232.336 383.952 232.119 383.375 231.685 382.949C231.25 382.514 230.61 382.297 229.764 382.297C229.023 382.297 228.402 382.485 227.9 382.859C227.398 383.233 227.147 383.686 227.147 384.218H225.059C225.059 383.611 225.272 383.027 225.699 382.466C226.133 381.897 226.717 381.448 227.451 381.118C228.192 380.789 229.004 380.624 229.888 380.624C231.288 380.624 232.385 380.976 233.178 381.68C233.972 382.376 234.384 383.338 234.414 384.566V390.159C234.414 391.274 234.556 392.161 234.84 392.82V393H232.662ZM229.214 391.417C229.865 391.417 230.483 391.248 231.067 390.911C231.651 390.574 232.074 390.136 232.336 389.597V387.104H230.708C228.162 387.104 226.889 387.849 226.889 389.339C226.889 389.99 227.106 390.499 227.541 390.866C227.975 391.233 228.533 391.417 229.214 391.417ZM245.026 385.7L237.603 382.792V380.658L247.194 384.903V386.542L237.603 390.799V388.643L245.026 385.7ZM194.336 402.826C194.336 402.016 194.443 401.239 194.658 400.495C194.877 399.75 195.201 399.073 195.63 398.464C196.06 397.856 196.506 397.426 196.968 397.175L197.172 397.831C196.649 398.232 196.219 398.844 195.883 399.667C195.55 400.491 195.367 401.413 195.335 402.434L195.33 402.89C195.33 404.272 195.582 405.472 196.087 406.489C196.391 407.097 196.753 407.574 197.172 407.917L196.968 408.524C196.492 408.259 196.037 407.815 195.604 407.192C194.758 405.975 194.336 404.519 194.336 402.826ZM199.127 400.892C199.567 400.351 200.14 400.081 200.846 400.081C202.074 400.081 202.693 400.774 202.704 402.16V406H201.71V402.154C201.707 401.735 201.61 401.426 201.42 401.225C201.234 401.025 200.942 400.924 200.545 400.924C200.223 400.924 199.94 401.01 199.696 401.182C199.453 401.354 199.263 401.58 199.127 401.859V406H198.133V397.75H199.127V400.892ZM207.001 401.08C206.851 401.055 206.688 401.042 206.512 401.042C205.861 401.042 205.418 401.32 205.186 401.875V406H204.192V400.188H205.159L205.175 400.86C205.501 400.341 205.963 400.081 206.561 400.081C206.754 400.081 206.901 400.106 207.001 400.156V401.08ZM210.224 406.107C209.436 406.107 208.795 405.85 208.301 405.334C207.807 404.815 207.56 404.122 207.56 403.255V403.073C207.56 402.496 207.669 401.982 207.887 401.531C208.109 401.076 208.417 400.722 208.811 400.468C209.208 400.21 209.638 400.081 210.1 400.081C210.856 400.081 211.443 400.33 211.862 400.828C212.281 401.325 212.49 402.038 212.49 402.965V403.379H208.553C208.568 403.952 208.734 404.416 209.053 404.77C209.375 405.121 209.783 405.296 210.277 405.296C210.628 405.296 210.925 405.225 211.169 405.082C211.412 404.938 211.625 404.749 211.808 404.512L212.415 404.985C211.928 405.733 211.198 406.107 210.224 406.107ZM210.1 400.897C209.699 400.897 209.362 401.044 209.09 401.338C208.818 401.628 208.65 402.036 208.585 402.562H211.497V402.487C211.468 401.982 211.332 401.592 211.088 401.316C210.845 401.037 210.515 400.897 210.1 400.897ZM214.134 406V400.957H213.215V400.188H214.134V399.592C214.134 398.969 214.3 398.488 214.633 398.147C214.966 397.807 215.437 397.637 216.046 397.637C216.275 397.637 216.502 397.668 216.728 397.729L216.674 398.534C216.506 398.502 216.327 398.486 216.137 398.486C215.815 398.486 215.566 398.581 215.391 398.771C215.215 398.957 215.127 399.225 215.127 399.576V400.188H216.368V400.957H215.127V406H214.134ZM223.786 406C223.728 405.885 223.682 405.681 223.646 405.388C223.184 405.868 222.633 406.107 221.992 406.107C221.419 406.107 220.948 405.946 220.579 405.624C220.214 405.298 220.031 404.886 220.031 404.389C220.031 403.784 220.26 403.314 220.719 402.981C221.181 402.645 221.829 402.477 222.663 402.477H223.63V402.02C223.63 401.673 223.526 401.397 223.318 401.193C223.111 400.985 222.805 400.881 222.4 400.881C222.045 400.881 221.748 400.971 221.508 401.15C221.268 401.329 221.148 401.546 221.148 401.8H220.149C220.149 401.51 220.251 401.23 220.456 400.962C220.663 400.69 220.943 400.475 221.293 400.317C221.648 400.16 222.036 400.081 222.459 400.081C223.129 400.081 223.653 400.249 224.033 400.586C224.412 400.919 224.609 401.379 224.624 401.966V404.641C224.624 405.175 224.692 405.599 224.828 405.914V406H223.786ZM222.137 405.243C222.448 405.243 222.744 405.162 223.023 405.001C223.302 404.84 223.505 404.63 223.63 404.373V403.18H222.851C221.634 403.18 221.025 403.536 221.025 404.249C221.025 404.561 221.129 404.804 221.336 404.979C221.544 405.155 221.811 405.243 222.137 405.243ZM227.529 398.781V400.188H228.614V400.957H227.529V404.561C227.529 404.793 227.578 404.969 227.674 405.087C227.771 405.201 227.936 405.259 228.168 405.259C228.283 405.259 228.441 405.237 228.641 405.194V406C228.38 406.072 228.125 406.107 227.878 406.107C227.434 406.107 227.1 405.973 226.874 405.705C226.648 405.436 226.536 405.055 226.536 404.561V400.957H225.478V400.188H226.536V398.781H227.529ZM231.128 398.781V400.188H232.213V400.957H231.128V404.561C231.128 404.793 231.176 404.969 231.273 405.087C231.37 405.201 231.534 405.259 231.767 405.259C231.882 405.259 232.039 405.237 232.24 405.194V406C231.978 406.072 231.724 406.107 231.477 406.107C231.033 406.107 230.698 405.973 230.473 405.705C230.247 405.436 230.134 405.055 230.134 404.561V400.957H229.076V400.188H230.134V398.781H231.128ZM236.188 401.08C236.037 401.055 235.874 401.042 235.699 401.042C235.047 401.042 234.605 401.32 234.372 401.875V406H233.378V400.188H234.345L234.361 400.86C234.687 400.341 235.149 400.081 235.747 400.081C235.94 400.081 236.087 400.106 236.188 400.156V401.08ZM238.186 406H237.192V400.188H238.186V406ZM237.111 398.647C237.111 398.486 237.16 398.35 237.256 398.239C237.357 398.128 237.503 398.072 237.697 398.072C237.89 398.072 238.037 398.128 238.137 398.239C238.237 398.35 238.288 398.486 238.288 398.647C238.288 398.808 238.237 398.942 238.137 399.05C238.037 399.157 237.89 399.211 237.697 399.211C237.503 399.211 237.357 399.157 237.256 399.05C237.16 398.942 237.111 398.808 237.111 398.647ZM244.701 403.159C244.701 404.047 244.497 404.761 244.088 405.302C243.68 405.839 243.132 406.107 242.445 406.107C241.711 406.107 241.143 405.848 240.742 405.329L240.694 406H239.781V397.75H240.774V400.828C241.175 400.33 241.729 400.081 242.434 400.081C243.139 400.081 243.693 400.348 244.094 400.881C244.498 401.415 244.701 402.145 244.701 403.073V403.159ZM243.707 403.046C243.707 402.369 243.576 401.846 243.315 401.478C243.054 401.109 242.678 400.924 242.187 400.924C241.532 400.924 241.061 401.229 240.774 401.837V404.351C241.079 404.96 241.553 405.264 242.198 405.264C242.674 405.264 243.045 405.08 243.31 404.711C243.575 404.342 243.707 403.787 243.707 403.046ZM249.545 405.425C249.159 405.88 248.591 406.107 247.843 406.107C247.223 406.107 246.751 405.928 246.425 405.57C246.103 405.209 245.94 404.675 245.936 403.97V400.188H246.93V403.943C246.93 404.824 247.288 405.264 248.004 405.264C248.763 405.264 249.268 404.981 249.519 404.416V400.188H250.512V406H249.567L249.545 405.425ZM253.375 398.781V400.188H254.46V400.957H253.375V404.561C253.375 404.793 253.423 404.969 253.52 405.087C253.617 405.201 253.781 405.259 254.014 405.259C254.129 405.259 254.286 405.237 254.487 405.194V406C254.225 406.072 253.971 406.107 253.724 406.107C253.28 406.107 252.945 405.973 252.72 405.705C252.494 405.436 252.381 405.055 252.381 404.561V400.957H251.323V400.188H252.381V398.781H253.375ZM258.037 406.107C257.249 406.107 256.608 405.85 256.114 405.334C255.62 404.815 255.373 404.122 255.373 403.255V403.073C255.373 402.496 255.482 401.982 255.701 401.531C255.923 401.076 256.231 400.722 256.625 400.468C257.022 400.21 257.452 400.081 257.914 400.081C258.669 400.081 259.256 400.33 259.675 400.828C260.094 401.325 260.304 402.038 260.304 402.965V403.379H256.367C256.381 403.952 256.548 404.416 256.866 404.77C257.188 405.121 257.597 405.296 258.091 405.296C258.442 405.296 258.739 405.225 258.982 405.082C259.226 404.938 259.439 404.749 259.622 404.512L260.229 404.985C259.742 405.733 259.011 406.107 258.037 406.107ZM257.914 400.897C257.513 400.897 257.176 401.044 256.904 401.338C256.632 401.628 256.463 402.036 256.399 402.562H259.31V402.487C259.281 401.982 259.145 401.592 258.902 401.316C258.658 401.037 258.329 400.897 257.914 400.897ZM264.842 404.458C264.842 404.19 264.74 403.982 264.536 403.835C264.336 403.685 263.983 403.556 263.478 403.449C262.977 403.341 262.577 403.212 262.28 403.062C261.987 402.912 261.768 402.733 261.625 402.525C261.485 402.317 261.416 402.07 261.416 401.784C261.416 401.307 261.616 400.905 262.017 400.575C262.422 400.246 262.937 400.081 263.564 400.081C264.223 400.081 264.756 400.251 265.165 400.591C265.576 400.931 265.782 401.367 265.782 401.896H264.783C264.783 401.624 264.667 401.39 264.434 401.193C264.205 400.996 263.915 400.897 263.564 400.897C263.202 400.897 262.919 400.976 262.715 401.134C262.511 401.291 262.409 401.497 262.409 401.751C262.409 401.991 262.504 402.172 262.694 402.294C262.884 402.416 263.226 402.532 263.72 402.643C264.217 402.754 264.62 402.887 264.928 403.041C265.236 403.194 265.464 403.381 265.61 403.599C265.761 403.814 265.836 404.077 265.836 404.389C265.836 404.908 265.628 405.325 265.213 405.64C264.798 405.952 264.259 406.107 263.596 406.107C263.131 406.107 262.719 406.025 262.361 405.86C262.003 405.696 261.722 405.466 261.518 405.173C261.317 404.876 261.217 404.555 261.217 404.211H262.21C262.228 404.544 262.361 404.809 262.608 405.006C262.859 405.2 263.188 405.296 263.596 405.296C263.972 405.296 264.273 405.221 264.499 405.071C264.728 404.917 264.842 404.713 264.842 404.458ZM195.926 418.296C196.28 418.296 196.59 418.189 196.855 417.974C197.12 417.759 197.267 417.491 197.295 417.168H198.235C198.217 417.501 198.103 417.818 197.892 418.119C197.68 418.42 197.397 418.66 197.043 418.839C196.692 419.018 196.32 419.107 195.926 419.107C195.134 419.107 194.504 418.844 194.035 418.318C193.57 417.788 193.337 417.065 193.337 416.148V415.981C193.337 415.416 193.441 414.913 193.648 414.472C193.856 414.032 194.153 413.69 194.54 413.446C194.93 413.203 195.39 413.081 195.92 413.081C196.572 413.081 197.113 413.276 197.542 413.667C197.976 414.057 198.207 414.563 198.235 415.187H197.295C197.267 414.811 197.124 414.503 196.866 414.263C196.611 414.019 196.296 413.897 195.92 413.897C195.416 413.897 195.023 414.08 194.744 414.445C194.468 414.807 194.331 415.332 194.331 416.019V416.207C194.331 416.877 194.468 417.392 194.744 417.754C195.02 418.116 195.414 418.296 195.926 418.296ZM199.089 416.041C199.089 415.471 199.2 414.959 199.422 414.504C199.648 414.05 199.959 413.699 200.357 413.452C200.758 413.205 201.215 413.081 201.727 413.081C202.518 413.081 203.157 413.355 203.644 413.903C204.135 414.451 204.38 415.179 204.38 416.089V416.159C204.38 416.724 204.271 417.233 204.052 417.684C203.837 418.132 203.528 418.481 203.123 418.731C202.722 418.982 202.26 419.107 201.737 419.107C200.95 419.107 200.31 418.833 199.82 418.286C199.333 417.738 199.089 417.013 199.089 416.11V416.041ZM200.088 416.159C200.088 416.803 200.237 417.321 200.534 417.711C200.835 418.101 201.236 418.296 201.737 418.296C202.242 418.296 202.643 418.099 202.94 417.706C203.238 417.308 203.386 416.753 203.386 416.041C203.386 415.403 203.234 414.888 202.93 414.494C202.629 414.096 202.228 413.897 201.727 413.897C201.236 413.897 200.84 414.093 200.54 414.483C200.239 414.873 200.088 415.432 200.088 416.159ZM206.566 413.188L206.598 413.919C207.042 413.36 207.622 413.081 208.338 413.081C209.567 413.081 210.186 413.774 210.197 415.16V419H209.203V415.154C209.2 414.735 209.103 414.426 208.913 414.225C208.727 414.025 208.435 413.924 208.038 413.924C207.715 413.924 207.432 414.01 207.189 414.182C206.945 414.354 206.756 414.58 206.62 414.859V419H205.626V413.188H206.566ZM213.043 411.781V413.188H214.128V413.957H213.043V417.561C213.043 417.793 213.092 417.969 213.188 418.087C213.285 418.201 213.45 418.259 213.683 418.259C213.797 418.259 213.955 418.237 214.155 418.194V419C213.894 419.072 213.64 419.107 213.393 419.107C212.949 419.107 212.614 418.973 212.388 418.705C212.163 418.436 212.05 418.055 212.05 417.561V413.957H210.992V413.188H212.05V411.781H213.043ZM218.882 419C218.825 418.885 218.778 418.681 218.742 418.388C218.28 418.868 217.729 419.107 217.088 419.107C216.515 419.107 216.044 418.946 215.675 418.624C215.31 418.298 215.127 417.886 215.127 417.389C215.127 416.784 215.357 416.314 215.815 415.981C216.277 415.645 216.925 415.477 217.759 415.477H218.726V415.02C218.726 414.673 218.622 414.397 218.415 414.193C218.207 413.985 217.901 413.881 217.496 413.881C217.142 413.881 216.844 413.971 216.604 414.15C216.365 414.329 216.245 414.546 216.245 414.8H215.246C215.246 414.51 215.348 414.23 215.552 413.962C215.759 413.69 216.039 413.475 216.39 413.317C216.744 413.16 217.133 413.081 217.555 413.081C218.225 413.081 218.749 413.249 219.129 413.586C219.508 413.919 219.705 414.379 219.72 414.966V417.641C219.72 418.175 219.788 418.599 219.924 418.914V419H218.882ZM217.233 418.243C217.544 418.243 217.84 418.162 218.119 418.001C218.398 417.84 218.601 417.63 218.726 417.373V416.18H217.947C216.73 416.18 216.121 416.536 216.121 417.249C216.121 417.561 216.225 417.804 216.433 417.979C216.64 418.155 216.907 418.243 217.233 418.243ZM222.357 419H221.363V413.188H222.357V419ZM221.283 411.647C221.283 411.486 221.331 411.35 221.428 411.239C221.528 411.128 221.675 411.072 221.868 411.072C222.062 411.072 222.208 411.128 222.309 411.239C222.409 411.35 222.459 411.486 222.459 411.647C222.459 411.808 222.409 411.942 222.309 412.05C222.208 412.157 222.062 412.211 221.868 412.211C221.675 412.211 221.528 412.157 221.428 412.05C221.331 411.942 221.283 411.808 221.283 411.647ZM224.892 413.188L224.924 413.919C225.368 413.36 225.948 413.081 226.665 413.081C227.893 413.081 228.512 413.774 228.523 415.16V419H227.529V415.154C227.526 414.735 227.429 414.426 227.239 414.225C227.053 414.025 226.761 413.924 226.364 413.924C226.042 413.924 225.759 414.01 225.515 414.182C225.272 414.354 225.082 414.58 224.946 414.859V419H223.952V413.188H224.892ZM233.405 417.458C233.405 417.19 233.303 416.982 233.099 416.835C232.899 416.685 232.546 416.556 232.041 416.449C231.54 416.341 231.14 416.212 230.843 416.062C230.55 415.912 230.331 415.733 230.188 415.525C230.048 415.317 229.979 415.07 229.979 414.784C229.979 414.307 230.179 413.905 230.58 413.575C230.985 413.246 231.5 413.081 232.127 413.081C232.786 413.081 233.319 413.251 233.728 413.591C234.139 413.931 234.345 414.367 234.345 414.896H233.346C233.346 414.624 233.23 414.39 232.997 414.193C232.768 413.996 232.478 413.897 232.127 413.897C231.765 413.897 231.482 413.976 231.278 414.134C231.074 414.291 230.972 414.497 230.972 414.751C230.972 414.991 231.067 415.172 231.257 415.294C231.447 415.416 231.789 415.532 232.283 415.643C232.78 415.754 233.183 415.887 233.491 416.041C233.799 416.194 234.027 416.381 234.173 416.599C234.324 416.814 234.399 417.077 234.399 417.389C234.399 417.908 234.191 418.325 233.776 418.64C233.361 418.952 232.822 419.107 232.159 419.107C231.694 419.107 231.282 419.025 230.924 418.86C230.566 418.696 230.285 418.466 230.081 418.173C229.88 417.876 229.78 417.555 229.78 417.211H230.773C230.791 417.544 230.924 417.809 231.171 418.006C231.422 418.2 231.751 418.296 232.159 418.296C232.535 418.296 232.836 418.221 233.062 418.071C233.291 417.917 233.405 417.713 233.405 417.458ZM239.501 419H238.508V410.75H239.501V419ZM242.176 419H241.183V413.188H242.176V419ZM241.102 411.647C241.102 411.486 241.15 411.35 241.247 411.239C241.347 411.128 241.494 411.072 241.688 411.072C241.881 411.072 242.028 411.128 242.128 411.239C242.228 411.35 242.278 411.486 242.278 411.647C242.278 411.808 242.228 411.942 242.128 412.05C242.028 412.157 241.881 412.211 241.688 412.211C241.494 412.211 241.347 412.157 241.247 412.05C241.15 411.942 241.102 411.808 241.102 411.647ZM244.711 413.188L244.744 413.919C245.188 413.36 245.768 413.081 246.484 413.081C247.712 413.081 248.332 413.774 248.342 415.16V419H247.349V415.154C247.345 414.735 247.248 414.426 247.059 414.225C246.872 414.025 246.581 413.924 246.183 413.924C245.861 413.924 245.578 414.01 245.334 414.182C245.091 414.354 244.901 414.58 244.765 414.859V419H243.771V413.188H244.711ZM251.463 416.309L250.84 416.959V419H249.846V410.75H250.84V415.74L251.372 415.101L253.182 413.188H254.39L252.129 415.616L254.653 419H253.488L251.463 416.309ZM259.493 411.781V413.188H260.578V413.957H259.493V417.561C259.493 417.793 259.541 417.969 259.638 418.087C259.734 418.201 259.899 418.259 260.132 418.259C260.246 418.259 260.404 418.237 260.604 418.194V419C260.343 419.072 260.089 419.107 259.842 419.107C259.398 419.107 259.063 418.973 258.837 418.705C258.612 418.436 258.499 418.055 258.499 417.561V413.957H257.441V413.188H258.499V411.781H259.493ZM261.373 416.041C261.373 415.471 261.484 414.959 261.706 414.504C261.931 414.05 262.243 413.699 262.64 413.452C263.041 413.205 263.498 413.081 264.01 413.081C264.801 413.081 265.44 413.355 265.927 413.903C266.418 414.451 266.663 415.179 266.663 416.089V416.159C266.663 416.724 266.554 417.233 266.335 417.684C266.121 418.132 265.811 418.481 265.406 418.731C265.005 418.982 264.543 419.107 264.021 419.107C263.233 419.107 262.594 418.833 262.103 418.286C261.616 417.738 261.373 417.013 261.373 416.11V416.041ZM262.372 416.159C262.372 416.803 262.52 417.321 262.817 417.711C263.118 418.101 263.519 418.296 264.021 418.296C264.525 418.296 264.926 418.099 265.224 417.706C265.521 417.308 265.669 416.753 265.669 416.041C265.669 415.403 265.517 414.888 265.213 414.494C264.912 414.096 264.511 413.897 264.01 413.897C263.519 413.897 263.124 414.093 262.823 414.483C262.522 414.873 262.372 415.432 262.372 416.159ZM225.59 429.159C225.59 430.043 225.388 430.756 224.983 431.296C224.579 431.837 224.031 432.107 223.34 432.107C222.634 432.107 222.079 431.884 221.675 431.436V434.234H220.681V426.188H221.589L221.637 426.833C222.042 426.332 222.604 426.081 223.324 426.081C224.022 426.081 224.573 426.344 224.978 426.871C225.386 427.397 225.59 428.129 225.59 429.067V429.159ZM224.597 429.046C224.597 428.391 224.457 427.873 224.178 427.494C223.898 427.114 223.515 426.924 223.028 426.924C222.427 426.924 221.976 427.191 221.675 427.725V430.501C221.972 431.031 222.427 431.296 223.039 431.296C223.515 431.296 223.893 431.108 224.172 430.732C224.455 430.353 224.597 429.791 224.597 429.046ZM226.616 429.046C226.616 428.154 226.827 427.438 227.25 426.897C227.673 426.353 228.226 426.081 228.91 426.081C229.59 426.081 230.129 426.314 230.526 426.779V423.75H231.52V432H230.607L230.559 431.377C230.161 431.864 229.608 432.107 228.899 432.107C228.226 432.107 227.676 431.832 227.25 431.28C226.827 430.729 226.616 430.009 226.616 429.121V429.046ZM227.61 429.159C227.61 429.818 227.746 430.333 228.018 430.706C228.29 431.078 228.666 431.264 229.146 431.264C229.776 431.264 230.236 430.981 230.526 430.416V427.746C230.229 427.198 229.773 426.924 229.157 426.924C228.67 426.924 228.29 427.112 228.018 427.488C227.746 427.864 227.61 428.421 227.61 429.159ZM233.556 432V426.957H232.637V426.188H233.556V425.592C233.556 424.969 233.722 424.488 234.055 424.147C234.388 423.807 234.859 423.637 235.468 423.637C235.697 423.637 235.924 423.668 236.15 423.729L236.096 424.534C235.928 424.502 235.749 424.486 235.559 424.486C235.237 424.486 234.988 424.581 234.812 424.771C234.637 424.957 234.549 425.225 234.549 425.576V426.188H235.79V426.957H234.549V432H233.556ZM239.292 428.879C239.292 429.678 239.186 430.444 238.975 431.178C238.767 431.909 238.447 432.584 238.014 433.203C237.584 433.823 237.133 434.263 236.66 434.524L236.451 433.917C237.002 433.495 237.444 432.84 237.777 431.952C238.114 431.06 238.286 430.072 238.293 428.987V428.815C238.293 428.063 238.214 427.365 238.057 426.72C237.899 426.072 237.679 425.492 237.396 424.98C237.117 424.468 236.802 424.069 236.451 423.782L236.66 423.175C237.133 423.437 237.582 423.874 238.008 424.486C238.438 425.098 238.758 425.773 238.97 426.511C239.185 427.248 239.292 428.038 239.292 428.879Z" fill="black"/>
<path d="M209 294L246 256" stroke="black" stroke-width="2"/>
<line x1="158.671" y1="322.741" x2="105.671" y2="370.741" stroke="black" stroke-width="2"/>
<line x1="199.804" y1="325.406" x2="233.804" y2="371.406" stroke="black" stroke-width="2"/>
<line x1="403" y1="332" x2="403" y2="370" stroke="black" stroke-width="2"/>
<path d="M220.39 69.0508L232.005 73.7451V77.3818L216.827 70.3496V67.6406L232.005 60.627V64.2637L220.39 69.0508ZM242.08 56.0625V60.9238H245.828V63.5771H242.08V76.0273C242.08 76.8314 242.247 77.4375 242.581 77.8457C242.915 78.2415 243.484 78.4395 244.288 78.4395C244.684 78.4395 245.228 78.3652 245.921 78.2168V81C245.018 81.2474 244.14 81.3711 243.286 81.3711C241.752 81.3711 240.596 80.9072 239.816 79.9795C239.037 79.0518 238.647 77.7344 238.647 76.0273V63.5771H234.992V60.9238H238.647V56.0625H242.08ZM262.249 81C262.051 80.6042 261.89 79.8991 261.767 78.8848C260.171 80.5423 258.266 81.3711 256.052 81.3711C254.073 81.3711 252.446 80.8145 251.172 79.7012C249.91 78.5755 249.279 77.153 249.279 75.4336C249.279 73.3431 250.071 71.7227 251.654 70.5723C253.25 69.4095 255.489 68.8281 258.371 68.8281H261.711V67.251C261.711 66.0511 261.352 65.0986 260.635 64.3936C259.917 63.6761 258.86 63.3174 257.462 63.3174C256.237 63.3174 255.211 63.6266 254.382 64.2451C253.553 64.8636 253.139 65.612 253.139 66.4902H249.688C249.688 65.4883 250.04 64.5234 250.745 63.5957C251.463 62.6556 252.427 61.9134 253.64 61.3691C254.864 60.8249 256.206 60.5527 257.666 60.5527C259.979 60.5527 261.791 61.1341 263.103 62.2969C264.414 63.4473 265.094 65.0368 265.144 67.0654V76.3057C265.144 78.1488 265.379 79.6146 265.849 80.7031V81H262.249ZM256.553 78.3838C257.629 78.3838 258.649 78.1055 259.614 77.5488C260.579 76.9922 261.278 76.2686 261.711 75.3779V71.2588H259.021C254.815 71.2588 252.712 72.4896 252.712 74.9512C252.712 76.0273 253.071 76.8685 253.788 77.4746C254.506 78.0807 255.427 78.3838 256.553 78.3838ZM287.521 71.1846C287.521 74.2523 286.815 76.7201 285.405 78.5879C283.995 80.4434 282.103 81.3711 279.728 81.3711C277.192 81.3711 275.231 80.4743 273.846 78.6807L273.679 81H270.524V52.5H273.957V63.1318C275.342 61.4124 277.254 60.5527 279.69 60.5527C282.127 60.5527 284.038 61.4743 285.424 63.3174C286.822 65.1605 287.521 67.6839 287.521 70.8877V71.1846ZM284.088 70.7949C284.088 68.457 283.636 66.651 282.733 65.377C281.83 64.1029 280.532 63.4658 278.837 63.4658C276.573 63.4658 274.947 64.5173 273.957 66.6201V75.3037C275.008 77.4066 276.647 78.458 278.874 78.458C280.519 78.458 281.799 77.821 282.715 76.5469C283.63 75.2728 284.088 73.3555 284.088 70.7949ZM295.592 81H292.159V52.5H295.592V81ZM309.434 81.3711C306.712 81.3711 304.498 80.4805 302.791 78.6992C301.084 76.9056 300.23 74.512 300.23 71.5186V70.8877C300.23 68.8962 300.608 67.1211 301.362 65.5625C302.129 63.9915 303.193 62.7669 304.554 61.8887C305.927 60.998 307.411 60.5527 309.007 60.5527C311.617 60.5527 313.646 61.4124 315.093 63.1318C316.54 64.8512 317.264 67.3128 317.264 70.5166V71.9453H303.663C303.713 73.9245 304.288 75.5264 305.389 76.751C306.502 77.9632 307.912 78.5693 309.619 78.5693C310.831 78.5693 311.858 78.3219 312.699 77.8271C313.54 77.3324 314.276 76.6768 314.907 75.8604L317.004 77.4932C315.322 80.0785 312.798 81.3711 309.434 81.3711ZM309.007 63.373C307.621 63.373 306.459 63.8802 305.519 64.8945C304.578 65.8965 303.997 67.3066 303.774 69.125H313.831V68.8652C313.732 67.1211 313.262 65.7728 312.421 64.8203C311.58 63.8555 310.442 63.373 309.007 63.373ZM333.406 68.9395L321.142 64.1338V60.6084L336.987 67.6221V70.3311L321.142 77.3633V73.8008L333.406 68.9395Z" fill="black"/>
<path d="M223.307 143.252L232.783 147.082V150.048L220.401 144.312V142.102L232.783 136.38V139.347L223.307 143.252ZM241.002 132.656V136.622H244.06V138.787H241.002V148.943C241.002 149.599 241.138 150.094 241.411 150.427C241.683 150.75 242.147 150.911 242.803 150.911C243.126 150.911 243.57 150.851 244.135 150.729V153C243.399 153.202 242.682 153.303 241.986 153.303C240.735 153.303 239.791 152.924 239.155 152.167C238.52 151.411 238.202 150.336 238.202 148.943V138.787H235.22V136.622H238.202V132.656H241.002ZM261.209 144.993C261.209 147.495 260.634 149.508 259.484 151.032C258.333 152.546 256.79 153.303 254.852 153.303C252.783 153.303 251.184 152.571 250.054 151.108L249.917 153H247.344V129.75H250.145V138.423C251.275 137.021 252.834 136.319 254.822 136.319C256.81 136.319 258.369 137.071 259.499 138.575C260.639 140.078 261.209 142.137 261.209 144.75V144.993ZM258.409 144.675C258.409 142.768 258.041 141.294 257.304 140.255C256.568 139.215 255.508 138.696 254.125 138.696C252.279 138.696 250.952 139.554 250.145 141.269V148.353C251.002 150.069 252.339 150.926 254.156 150.926C255.498 150.926 256.542 150.407 257.289 149.367C258.036 148.328 258.409 146.764 258.409 144.675ZM264.01 144.66C264.01 143.055 264.323 141.612 264.948 140.331C265.584 139.049 266.462 138.06 267.582 137.364C268.712 136.667 269.999 136.319 271.442 136.319C273.672 136.319 275.473 137.091 276.846 138.635C278.228 140.179 278.919 142.233 278.919 144.796V144.993C278.919 146.587 278.612 148.02 277.996 149.292C277.391 150.553 276.518 151.537 275.377 152.243C274.247 152.95 272.945 153.303 271.472 153.303C269.252 153.303 267.451 152.531 266.068 150.987C264.696 149.443 264.01 147.399 264.01 144.856V144.66ZM266.825 144.993C266.825 146.809 267.244 148.267 268.082 149.367C268.929 150.467 270.059 151.017 271.472 151.017C272.895 151.017 274.025 150.462 274.863 149.352C275.7 148.232 276.119 146.668 276.119 144.66C276.119 142.863 275.69 141.41 274.833 140.3C273.985 139.18 272.855 138.62 271.442 138.62C270.059 138.62 268.944 139.17 268.097 140.27C267.249 141.37 266.825 142.944 266.825 144.993ZM281.75 144.675C281.75 142.162 282.345 140.144 283.536 138.62C284.727 137.086 286.286 136.319 288.213 136.319C290.131 136.319 291.649 136.975 292.77 138.287V129.75H295.57V153H292.997L292.86 151.244C291.74 152.617 290.181 153.303 288.183 153.303C286.286 153.303 284.737 152.526 283.536 150.972C282.345 149.418 281.75 147.389 281.75 144.887V144.675ZM284.55 144.993C284.55 146.849 284.934 148.303 285.701 149.352C286.468 150.402 287.527 150.926 288.879 150.926C290.655 150.926 291.952 150.129 292.77 148.535V141.012C291.932 139.468 290.645 138.696 288.91 138.696C287.537 138.696 286.468 139.226 285.701 140.285C284.934 141.345 284.55 142.914 284.55 144.993ZM305.288 148.898L309.102 136.622H312.099L305.515 155.528C304.495 158.252 302.876 159.615 300.656 159.615L300.126 159.569L299.082 159.373V157.102L299.838 157.163C300.787 157.163 301.524 156.971 302.048 156.587C302.583 156.204 303.022 155.503 303.365 154.483L303.986 152.818L298.143 136.622H301.201L305.288 148.898ZM324.526 143.161L314.521 139.241V136.365L327.448 142.086V144.296L314.521 150.033V147.127L324.526 143.161Z" fill="black"/>
<line x1="272" y1="85" x2="272" y2="124" stroke="black" stroke-width="2"/>
<line x1="272" y1="158" x2="272" y2="205" stroke="black" stroke-width="2"/>
<line x1="327.597" y1="255.198" x2="378.597" y2="293.198" stroke="black" stroke-width="2"/>
<line x1="214.201" y1="150.458" x2="141.201" y2="182.458" stroke="black"/>
<line x1="334.219" y1="144.55" x2="410.219" y2="181.55" stroke="black"/>
<line x1="67.2402" y1="216.439" x2="25.2402" y2="239.439" stroke="black"/>
<line x1="91.4897" y1="230.101" x2="84.4897" y2="264.101" stroke="black"/>
<line x1="443.499" y1="237.036" x2="440.499" y2="279.036" stroke="black"/>
<line x1="461.363" y1="236.656" x2="497.363" y2="274.656" stroke="black"/>
</svg>
